<?xml version="1.0" encoding="UTF-8" standalone="no"?>
<!DOCTYPE svg PUBLIC "-//W3C//DTD SVG 1.1//EN" "http://www.w3.org/Graphics/SVG/1.1/DTD/svg11.dtd">
<svg xmlns="http://www.w3.org/2000/svg" version="1.1" viewBox="0.00 0.00 478.00 115.00">
<path fill="#efefef" d="
  M 345.55 2.39
  Q 346.88 1.37 350.00 1.37
  Q 397.88 1.35 438.01 1.39
  Q 444.08 1.39 448.47 6.25
  Q 465.29 24.84 473.40 33.85
  Q 476.79 37.62 476.80 42.73
  Q 476.81 50.36 476.80 92.50
  C 476.80 95.87 476.68 99.28 475.06 102.37
  C 472.49 107.27 466.91 112.74 461.14 113.38
  Q 458.15 113.72 442.50 113.68
  Q 396.56 113.57 347.52 113.63
  A 2.34 2.33 88.3 0 1 345.18 111.42
  Q 344.98 107.66 345.07 102.24
  Q 345.39 83.55 362.82 77.30
  Q 365.50 76.34 370.75 76.34
  Q 406.22 76.32 425.96 76.35
  Q 431.04 76.36 433.21 75.19
  Q 436.81 73.25 437.27 69.15
  Q 437.81 64.30 437.05 56.98
  C 436.02 46.99 427.15 38.86 417.00 38.71
  Q 415.31 38.69 373.75 38.68
  Q 369.40 38.68 366.05 37.73
  Q 348.74 32.83 345.51 15.27
  Q 345.02 12.61 345.08 3.34
  A 1.20 1.19 -18.8 0 1 345.55 2.39
  Z
  M 355.12 7.78
  Q 353.74 19.45 363.00 25.08
  C 365.78 26.78 369.70 26.96 373.00 26.97
  Q 382.39 26.97 382.94 26.88
  Q 385.96 26.38 386.09 23.73
  Q 386.25 20.68 386.22 11.27
  C 386.21 8.86 386.59 6.79 383.75 6.77
  Q 369.94 6.67 356.38 6.66
  A 1.27 1.27 0.0 0 0 355.12 7.78
  Z
  M 355.12 106.83
  A 1.26 1.26 0.0 0 0 356.36 107.95
  Q 369.84 108.08 383.58 108.12
  C 386.40 108.12 386.04 106.06 386.08 103.67
  Q 386.20 94.31 386.07 91.28
  Q 385.97 88.64 382.97 88.11
  Q 382.42 88.02 373.09 87.93
  C 369.81 87.90 365.91 88.04 363.13 89.71
  Q 353.86 95.21 355.12 106.83
  Z"
/>
<path fill="#efefef" d="
  M 8.59 103.57
  A 0.37 0.37 0.0 0 0 8.95 103.20
  L 8.95 55.24
  A 0.41 0.41 0.0 0 0 8.66 54.85
  Q 8.01 54.66 5.94 54.66
  C 3.33 54.65 1.42 53.48 1.24 50.53
  C 0.97 46.11 3.43 45.81 7.08 45.80
  Q 23.35 45.77 32.24 45.90
  Q 34.14 45.92 42.78 47.73
  Q 46.76 48.56 51.46 51.83
  C 62.42 59.46 62.85 76.65 61.12 88.17
  Q 60.69 91.08 58.84 95.79
  C 53.60 109.22 39.10 112.47 26.25 112.51
  Q 10.47 112.56 5.98 112.50
  Q 0.17 112.41 1.48 106.19
  C 2.07 103.38 5.82 103.65 8.59 103.57
  Z
  M 18.10 54.95
  L 18.26 103.11
  A 0.39 0.39 0.0 0 0 18.66 103.50
  L 31.28 103.45
  A 21.13 20.71 -0.2 0 0 52.33 82.67
  L 52.31 75.15
  A 21.13 20.71 -0.2 0 0 31.10 54.51
  L 18.48 54.56
  A 0.39 0.39 0.0 0 0 18.10 54.95
  Z"
/>
<rect fill="#efefef" x="-12.27" y="-12.27" transform="translate(373.88,58.11) rotate(-0.1)" width="24.54" height="24.54" rx="2.89"/>
<rect fill="#efefef" x="-5.70" y="-5.61" transform="translate(77.60,51.92) rotate(0.2)" width="11.40" height="11.22" rx="1.79"/>
<path fill="#efefef" d="
  M 113.28 103.86
  A 0.51 0.50 -46.2 0 0 114.15 103.84
  Q 119.88 93.72 127.58 80.81
  C 128.24 79.70 129.52 76.86 129.61 74.63
  C 129.77 70.85 123.35 68.54 126.76 64.09
  C 129.67 60.29 135.57 60.19 137.83 64.94
  C 141.33 72.27 136.17 81.72 132.15 88.15
  Q 131.41 89.34 119.52 108.01
  Q 117.55 111.12 115.23 112.71
  C 112.57 114.53 107.62 112.19 106.09 109.86
  Q 104.90 108.04 104.56 103.98
  Q 103.36 89.72 102.11 72.62
  A 1.20 1.20 0.0 0 0 100.32 71.67
  L 95.71 74.33
  A 1.26 1.23 35.1 0 1 94.85 74.47
  Q 90.86 73.73 91.53 70.00
  A 1.76 1.72 71.9 0 1 91.96 69.13
  Q 96.40 64.27 102.13 62.88
  Q 105.65 62.02 107.73 63.41
  Q 110.31 65.13 110.52 68.30
  Q 112.44 96.88 112.97 103.01
  Q 113.00 103.42 113.28 103.86
  Z"
/>
<path fill="#efefef" d="
  M 152.66 90.84
  A 1.15 1.15 0.0 0 0 151.52 92.13
  Q 152.48 99.88 157.60 103.01
  C 162.86 106.23 171.12 105.29 176.93 102.72
  A 3.53 3.53 0.0 0 1 181.59 104.56
  L 181.71 104.84
  A 3.81 3.80 63.6 0 1 180.10 109.64
  Q 174.90 112.63 172.51 113.03
  C 168.87 113.65 161.15 113.82 157.24 112.69
  Q 146.98 109.72 143.76 99.33
  C 140.78 89.70 141.97 77.70 148.09 69.97
  C 154.80 61.49 172.13 58.62 180.14 67.63
  C 185.28 73.42 185.71 81.43 184.38 88.81
  A 2.47 2.46 5.0 0 1 181.95 90.84
  L 152.66 90.84
  Z
  M 153.38 83.36
  L 174.88 83.36
  A 1.76 1.75 -88.1 0 0 176.63 81.72
  C 177.78 65.54 154.14 67.28 152.47 82.34
  A 0.92 0.92 0.0 0 0 153.38 83.36
  Z"
/>
<path fill="#efefef" d="
  M 206.69 72.75
  A 0.40 0.39 -45.6 0 0 207.38 72.74
  C 210.39 67.22 214.04 63.14 220.50 62.23
  C 229.16 61.00 232.36 70.29 231.32 77.12
  A 2.89 2.89 0.0 0 1 228.98 79.53
  Q 226.45 79.99 223.38 79.42
  A 2.20 2.20 0.0 0 1 221.58 77.26
  C 221.59 75.65 222.34 69.03 218.78 70.49
  C 213.70 72.58 209.91 78.76 208.09 83.79
  C 205.87 89.93 206.41 96.88 206.47 103.22
  A 0.52 0.52 0.0 0 0 207.00 103.73
  C 210.45 103.69 213.00 103.61 214.28 107.50
  A 1.56 1.53 46.1 0 1 214.27 108.51
  C 213.13 111.72 211.16 112.56 207.66 112.55
  Q 200.97 112.52 196.07 112.52
  C 190.44 112.53 188.81 104.64 195.07 103.85
  Q 196.27 103.70 197.28 103.52
  A 0.70 0.70 0.0 0 0 197.86 102.83
  L 197.84 72.49
  A 0.57 0.56 6.4 0 0 197.39 71.94
  Q 197.17 71.90 195.02 72.00
  C 188.88 72.29 187.66 63.52 194.41 63.37
  Q 198.68 63.27 205.37 63.44
  A 1.07 1.07 0.0 0 1 206.42 64.49
  Q 206.48 67.77 206.42 71.74
  Q 206.41 72.26 206.69 72.75
  Z"
/>
<path fill="#efefef" d="
  M 312.92 106.49
  A 0.53 0.53 0.0 0 0 312.14 106.56
  Q 308.79 110.98 302.68 113.02
  A 4.18 4.10 -55.9 0 1 301.74 113.21
  Q 295.92 113.72 292.21 113.27
  Q 288.63 112.85 285.49 108.89
  Q 281.37 103.70 283.00 95.84
  C 284.43 88.89 291.77 85.24 298.33 83.83
  Q 304.94 82.42 311.96 81.59
  A 1.05 1.04 86.6 0 0 312.88 80.55
  C 312.82 69.22 303.20 69.25 294.89 71.39
  A 2.31 2.30 -7.3 0 0 293.16 73.62
  L 293.16 77.57
  A 1.04 1.01 68.5 0 1 292.85 78.31
  Q 291.25 79.84 287.74 79.75
  Q 282.67 79.63 283.28 74.23
  C 284.76 61.00 303.58 60.62 312.68 63.87
  C 319.64 66.36 321.20 73.87 321.28 80.27
  Q 321.36 86.42 321.30 102.53
  A 0.88 0.87 2.8 0 0 322.10 103.41
  C 331.59 104.19 328.69 113.94 319.98 112.36
  Q 316.17 111.67 314.86 109.71
  C 314.19 108.70 313.72 107.23 312.92 106.49
  Z
  M 312.03 88.70
  Q 305.82 89.73 301.00 90.72
  C 297.09 91.53 292.08 93.82 291.52 98.10
  C 291.01 101.98 293.73 105.14 297.80 105.29
  C 302.60 105.46 308.54 103.29 311.97 99.43
  A 2.78 2.78 0.0 0 0 312.68 97.60
  L 312.76 89.33
  A 0.63 0.62 85.5 0 0 312.03 88.70
  Z"
/>
<path fill="#efefef" d="
  M 265.70 71.48
  Q 257.18 69.92 250.39 71.62
  Q 248.71 72.04 246.67 74.28
  A 1.97 1.93 70.3 0 0 246.18 75.34
  C 245.53 80.43 249.19 81.82 253.58 82.90
  Q 253.80 82.95 262.57 85.19
  Q 268.45 86.69 271.06 88.71
  C 276.40 92.82 277.99 100.08 274.90 105.82
  Q 272.98 109.39 268.81 111.84
  Q 265.88 113.56 257.96 113.60
  C 252.70 113.63 245.34 114.04 240.52 111.48
  A 4.71 4.69 -81.8 0 1 238.11 108.25
  Q 237.38 104.67 237.21 99.87
  Q 237.14 98.02 238.79 96.73
  Q 241.17 94.87 244.15 97.35
  A 1.07 1.01 -79.6 0 1 244.48 97.86
  L 245.92 103.03
  A 3.00 2.98 -1.9 0 0 248.19 105.14
  Q 255.21 106.61 262.04 105.31
  C 265.99 104.56 269.29 100.73 266.66 96.88
  Q 264.69 94.00 261.89 93.37
  C 253.16 91.43 239.26 89.65 237.56 80.04
  Q 236.09 71.68 241.62 66.74
  Q 245.21 63.54 253.18 62.82
  Q 259.70 62.22 265.64 62.90
  Q 270.82 63.48 271.73 63.99
  C 275.47 66.06 275.02 70.32 275.29 74.70
  C 275.52 78.48 274.16 81.25 269.91 79.94
  A 2.60 2.60 0.0 0 1 268.17 78.15
  L 266.51 72.21
  A 1.04 1.02 86.7 0 0 265.70 71.48
  Z"
/>
<path fill="#efefef" d="
  M 76.11 72.86
  A 0.90 0.89 87.9 0 0 75.15 71.96
  Q 70.52 72.28 69.21 70.41
  C 66.57 66.62 69.02 63.40 73.22 63.37
  Q 76.42 63.35 79.63 63.34
  C 84.10 63.32 84.72 65.95 84.72 70.01
  Q 84.69 100.31 84.69 102.99
  A 0.62 0.62 0.0 0 0 85.30 103.60
  Q 87.20 103.63 88.54 103.89
  C 94.07 104.97 92.33 112.45 87.14 112.48
  Q 77.40 112.52 74.73 112.56
  C 66.30 112.72 66.84 102.61 75.28 103.67
  A 0.74 0.74 0.0 0 0 76.11 102.93
  L 76.11 72.86
  Z"
/>
</svg>
