<?xml version="1.0" encoding="UTF-8" standalone="no"?>
<svg
   version="1.1"
   viewBox="0 0 491.24542 77.250748"
   id="svg6"
   sodipodi:docname="khipu-official-logo.svg"
   width="491.24542"
   height="77.250748"
   inkscape:version="1.4.2 (f4327f4, 2025-05-13)"
   xmlns:inkscape="http://www.inkscape.org/namespaces/inkscape"
   xmlns:sodipodi="http://sodipodi.sourceforge.net/DTD/sodipodi-0.dtd"
   xmlns="http://www.w3.org/2000/svg"
   xmlns:svg="http://www.w3.org/2000/svg">
  <defs
     id="defs6" />
  <sodipodi:namedview
     id="namedview6"
     pagecolor="#ffffff"
     bordercolor="#000000"
     borderopacity="0.25"
     inkscape:showpageshadow="2"
     inkscape:pageopacity="0.0"
     inkscape:pagecheckerboard="0"
     inkscape:deskcolor="#d1d1d1"
     inkscape:zoom="4.5700758"
     inkscape:cx="249.77704"
     inkscape:cy="39.058433"
     inkscape:window-width="2560"
     inkscape:window-height="1351"
     inkscape:window-x="-9"
     inkscape:window-y="-9"
     inkscape:window-maximized="1"
     inkscape:current-layer="svg6" />
  <path
     fill="#ffffff"
     d="m 161.26646,24.174344 q -3.81,-1.71 -6.19,-5.05 a 0.31,0.31 0 0 0 -0.52,0.01 q -1.46,2.27 -3.04,3.38 c -6.95,4.85 -13.38,3.26 -18.36,-2.97 a 0.43,0.43 0 0 0 -0.7,0.04 q -2.91,4.57 -9.25,5.91 c -6.09,1.29 -12.02,-4.64 -14.29,-9.65 a 0.9,0.9 0 0 0 -0.82,-0.53 H 81.476457 a 0.97,0.96 3.3 0 0 -0.96,0.85 q -0.71,5.98 -5.6,8.21 c -8.51,3.88 -15.15,0.22 -18.9,-7.91 a 0.83,0.81 76.4 0 0 -0.77,-0.48 l -7.39,0.21 a 2.66,2.66 0 0 1 -2.74,-2.65 v -0.2 a 2.47,2.48 88.3 0 1 2.43,-2.57 l 6.73,-0.11 a 0.85,0.84 7.4 0 0 0.8,-0.61 c 1.95,-6.6699996 9.45,-11.2999996 16.15,-8.1399996 q 5.31,2.51 8.57,7.5 a 1.02,1 73.1 0 0 0.84,0.46 h 26.900003 a 0.73,0.71 8.8 0 0 0.69,-0.49 q 2.05,-6.13 8.12,-8.49999977 c 4.98,-1.94000023 11.44,1.87999977 14.73,5.30999977 a 0.26,0.26 0 0 0 0.4,-0.03 c 6.38,-8.8 14.38,-6.84999977 21.39,-0.39 a 0.5,0.49 40.2 0 0 0.73,-0.06 c 3.73,-4.99999977 8.58,-7.33 14.78,-4.48 7.49,3.45 11.18,9.0099996 8.25,17.2199996 -1.3,3.62 -5.63,5.57 -9.08,6.58 a 0.34,0.33 45.3 0 0 0,0.64 c 6.34,1.93 10.93,6.73 10.19,13.86 q -0.59,5.71 -5.07,8.13 c -4.97,2.71 -9.19,3.12 -13.66,-0.17 q -3.56,-2.61 -5.77,-6.75 a 0.69,0.67 76.1 0 0 -0.58,-0.36 l -31.33,-1.12 a 0.15,0.15 0 0 0 -0.16,0.13 c -1.03,6.95 -7.74,12.92 -14.95,10.41 q -5.09,-1.77 -7.810003,-4.67 a 0.52,0.52 0 0 0 -0.8,0.06 q -2.1,2.99 -6.91,4.76 c -6.66,2.45 -12.88,-2.6 -15.84,-8.13 a 0.78,0.77 75.7 0 0 -0.68,-0.41 H 5.1764571 a 5.33,5.34 67.4 0 1 -3.76,-1.55 l -1.15999997,-1.17 a 0.89,0.88 67.4 0 1 0.62,-1.51 H 72.556457 a 0.78,0.78 0 0 0 0.77,-0.68 q 1.15,-7.81 8.73,-10.69 c 4.6,-1.76 10.84,1.75 13.9,4.8 a 0.57,0.57 0 0 0 0.8,0 c 5.090003,-5.11 11.190003,-7.85 17.640003,-2.76 q 4.09,3.24 5.44,6.5 a 1.23,1.23 0 0 0 1.09,0.76 l 30.1,1.08 a 0.91,0.9 5.9 0 0 0.92,-0.74 q 1.41,-7.94 9.28,-10.49 a 0.42,0.42 0 0 0 0.04,-0.79 z m 10.2019,-17.6536996 a 7.68,8.98 47.7 0 0 -11.8106,0.3633 7.68,8.98 47.7 0 0 -1.4732,11.7240996 7.68,8.98 47.7 0 0 11.8106,-0.3633 7.68,8.98 47.7 0 0 1.4732,-11.7240996 z m -21.899,0.2133 a 7.67,8.98 47.9 0 0 -11.8051,0.3294 7.67,8.98 47.9 0 0 -1.5207,11.7113996 7.67,8.98 47.9 0 0 11.8051,-0.3294 7.67,8.98 47.9 0 0 1.5207,-11.7113996 z m -21.971,0.1767 a 7.67,8.98 47.7 0 0 -11.8039,0.3707 7.67,8.98 47.7 0 0 -1.4799,11.7166996 7.67,8.98 47.7 0 0 11.8039,-0.3707 7.67,8.98 47.7 0 0 1.4799,-11.7166996 z m -52.928403,0.645 a 7.71,8.95 48.6 0 0 -11.8122,0.1353 7.71,8.95 48.6 0 0 -1.6148,11.7020996 7.71,8.95 48.6 0 0 11.8122,-0.1353 7.71,8.95 48.6 0 0 1.6148,-11.7020996 z M 171.72986,31.225544 a 7.68,8.98 48 0 0 -11.8123,0.3014 7.68,8.98 48 0 0 -1.5345,11.7162 7.68,8.98 48 0 0 11.8123,-0.3014 7.68,8.98 48 0 0 1.5345,-11.7162 z m -57.01,0.59 a 7.66,8.98 48 0 0 -11.7989,0.3163 7.66,8.98 48 0 0 -1.5479,11.7013 7.66,8.98 48 0 0 11.7989,-0.3163 7.66,8.98 48 0 0 1.5479,-11.7013 z m -21.632103,0.0836 a 7.68,8.98 47.6 0 0 -11.8099,0.3839 7.68,8.98 47.6 0 0 -1.4527,11.7265 7.68,8.98 47.6 0 0 11.8099,-0.3839 7.68,8.98 47.6 0 0 1.4527,-11.7265 z"
     id="path1" />
  <path
     fill="#ffffff"
     d="m 243.10646,1.6743446 h 14.48 a 0.32,0.32 0 0 1 0.22,0.55 l -27.92,27.9199994 a 0.32,0.32 0 0 0 -0.03,0.41 l 29.97,42.07 a 0.32,0.32 0 0 1 -0.26,0.51 h -15.07 a 0.32,0.32 0 0 1 -0.27,-0.14 l -22.99,-33.51 a 0.32,0.32 0 0 0 -0.49,-0.05 l -9.76,9.76 a 0.32,0.32 0 0 0 -0.09,0.22 v 23.4 a 0.32,0.32 0 0 1 -0.32,0.32 h -12.02 a 0.32,0.32 0 0 1 -0.32,-0.32 V 2.0043446 a 0.32,0.32 0 0 1 0.32,-0.32 h 12.01 a 0.32,0.32 0 0 1 0.32,0.32 V 32.994344 a 0.32,0.32 0 0 0 0.55,0.22 l 31.45,-31.4499994 a 0.32,0.32 0 0 1 0.22,-0.09 z"
     id="path2" />
  <path
     fill="#ffffff"
     d="m 295.24646,30.004344 q 14.06,0 15.87,-0.03 a 0.29,0.29 0 0 0 0.29,-0.29 V 2.3043446 a 0.63,0.62 0 0 1 0.63,-0.62 h 11.37 a 0.62,0.62 0 0 1 0.62,0.62 V 72.674344 a 0.46,0.46 0 0 1 -0.46,0.46 h -11.83 a 0.33,0.33 0 0 1 -0.33,-0.33 v -31.41 a 0.48,0.48 0 0 0 -0.5,-0.48 q -0.79,0.03 -15.66,0.03 -14.87,0 -15.66,-0.03 a 0.48,0.48 0 0 0 -0.49,0.48 v 31.41 a 0.33,0.33 0 0 1 -0.33,0.33 h -11.83 a 0.46,0.46 0 0 1 -0.46,-0.46 l -0.01,-70.3699994 a 0.62,0.62 0 0 1 0.62,-0.62 h 11.37 a 0.63,0.62 0 0 1 0.63,0.62 l 0.01,27.3799994 a 0.29,0.29 0 0 0 0.28,0.29 q 1.81,0.03 15.87,0.03 z"
     id="path3" />
  <rect
     fill="#ffffff"
     x="338.96646"
     y="1.7043453"
     width="12.58"
     height="71.440002"
     rx="0.41999999"
     id="rect3" />
  <path
     fill="#ffffff"
     d="m 379.76646,45.634344 a 0.49,0.49 0 0 0 -0.5,0.49 v 26.4 a 0.61,0.61 0 0 1 -0.61,0.61 h -11.34 a 0.65,0.65 0 0 1 -0.65,-0.65 V 2.2943446 a 0.61,0.6 0 0 1 0.61,-0.6 q 10,-0.02 30.78,0.02 c 10.29,0.02 20.23,3.47 23.41,13.9699994 4.72,15.59 -3.55,29.78 -20.66,29.97 q -12.02,0.12 -21.04,-0.02 z m -0.58,-33.25 0.16,22.72 a 0.33,0.33 0 0 0 0.33,0.32 l 19.32,-0.13 a 10.66,11.15 89.6 0 0 11.08,-10.74 l -0.02,-2.06 a 10.66,11.15 89.6 0 0 -11.22,-10.58 l -19.32,0.14 a 0.33,0.33 0 0 0 -0.33,0.33 z"
     id="path4" />
  <path
     fill="#ffffff"
     d="m 461.86646,63.904344 c 14.03,0 16.77,-8.33 16.72,-20.55 q -0.11,-24.28 0.01,-41.0799994 a 0.6,0.59 0 0 1 0.6,-0.59 h 11.59 a 0.42,0.41 0 0 1 0.42,0.41 q -0.05,36.3799994 0.02,40.0699994 0.18,10.56 -1.35,15.21 c -4.1,12.45 -14.6,17.43 -28.01,17.43 -13.42,0 -23.92,-4.99 -28.02,-17.44 q -1.53,-4.64 -1.34,-15.2 0.07,-3.69 0.02,-40.0699994 a 0.42,0.41 0 0 1 0.42,-0.41 h 11.59 a 0.6,0.59 0 0 1 0.6,0.59 q 0.12,16.7999994 0.01,41.0799994 c -0.06,12.22 2.68,20.54 16.72,20.55 z"
     id="path5" />
  <path
     fill="#ffffff"
     d="m 153.88646,57.284344 q 0.15,-0.12 0.39,-0.86 0.07,-0.19 0.54,-0.69 8.01,-8.47 17.68,-1.12 8.69,6.61 4.12,15.92 c -1.53,3.13 -3.86,4.23 -7.41,5.21 -5.71,1.57 -10.33,-0.49 -13.64,-5.41 a 0.53,0.53 0 0 0 -0.89,0.01 c -3.3,5.15 -9.42,7.76 -15.08,5.17 q -5.77,-2.64 -9.34,-9.35 a 0.93,0.94 76.4 0 0 -0.83,-0.5 h -13.65 a 0.76,0.77 5.5 0 0 -0.75,0.62 c -1.31,7.2 -8.46,12.87 -15.920003,9.79 q -7.29,-3.02 -9.66,-9.23 a 1.22,1.23 79.7 0 0 -1.15,-0.79 h -12.92 a 0.63,0.64 3.6 0 0 -0.63,0.56 c -0.88,7.41 -5.42,10.07 -12.13,10.61 -5.6,0.44 -10.22,-4.7 -12.46,-9.43 a 0.94,0.93 77.7 0 0 -0.83,-0.54 l -21.15,-0.6 a 2.62,2.63 1.3 0 1 -2.55,-2.68 l 0.01,-0.22 a 2.51,2.51 0 0 1 2.59,-2.54 l 20.18,0.62 a 0.76,0.76 0 0 0 0.74,-0.55 c 1.87,-6.77 9.47,-11.06 16.03,-8.21 q 4.5,1.95 8.72,7.42 a 0.6,0.59 70.8 0 0 0.47,0.23 h 14.79 a 0.41,0.41 0 0 0 0.4,-0.32 q 0.9,-3.99 3.42,-5.7 c 8.440003,-5.69 15.350003,-2.58 20.400003,5.5 a 0.23,0.23 0 0 0 0.19,0.1 h 16.47 a 0.62,0.61 8.2 0 0 0.59,-0.44 q 1.53,-5.22 5.46,-6.9 c 6.62,-2.82 11.87,-1.83 16.58,4.21 a 0.84,0.84 0 0 0 1.22,0.11 z m 18.1701,0.6568 a 7.72,8.93 49.3 0 0 -11.8043,-0.0296 7.72,8.93 49.3 0 0 -1.7359,11.676 7.72,8.93 49.3 0 0 11.8043,0.0296 7.72,8.93 49.3 0 0 1.7359,-11.676 z m -22.3081,0.1812 a 7.73,8.92 49 0 0 -11.8033,0.0181 7.73,8.92 49 0 0 -1.6607,11.6859 7.73,8.92 49 0 0 11.8033,-0.0181 7.73,8.92 49 0 0 1.6607,-11.6859 z m -41.1439,0.3083 a 7.69,8.97 48.5 0 0 -11.813603,0.1842 7.69,8.97 48.5 0 0 -1.6226,11.7032 7.69,8.97 48.5 0 0 11.813603,-0.1842 7.69,8.97 48.5 0 0 1.6226,-11.7032 z m -39.864303,0.3667 a 7.71,8.95 48.7 0 0 -11.8124,0.1148 7.71,8.95 48.7 0 0 -1.6352,11.6992 7.71,8.95 48.7 0 0 11.8124,-0.1148 7.71,8.95 48.7 0 0 1.6352,-11.6992 z"
     id="path6" />
</svg>
