<?xml version="1.0" encoding="UTF-8" standalone="no"?>
<svg
   version="1.1"
   viewBox="0 0 557 192.46614"
   id="svg48"
   sodipodi:docname="uba-logo.svg"
   width="557"
   height="192.46614"
   inkscape:version="1.4.2 (f4327f4, 2025-05-13)"
   xmlns:inkscape="http://www.inkscape.org/namespaces/inkscape"
   xmlns:sodipodi="http://sodipodi.sourceforge.net/DTD/sodipodi-0.dtd"
   xmlns="http://www.w3.org/2000/svg"
   xmlns:svg="http://www.w3.org/2000/svg">
  <defs
     id="defs48" />
  <sodipodi:namedview
     id="namedview48"
     pagecolor="#ffffff"
     bordercolor="#000000"
     borderopacity="0.25"
     inkscape:showpageshadow="2"
     inkscape:pageopacity="0.0"
     inkscape:pagecheckerboard="0"
     inkscape:deskcolor="#d1d1d1"
     inkscape:zoom="4.3321364"
     inkscape:cx="278.5"
     inkscape:cy="96.141939"
     inkscape:window-width="2560"
     inkscape:window-height="1351"
     inkscape:window-x="-9"
     inkscape:window-y="-9"
     inkscape:window-maximized="1"
     inkscape:current-layer="svg48" />
  <path
     fill="#ffffff"
     d="M 108.25,192.46614 H 84.86 q -32.4,-4.34 -55.05,-26.06 -27.08,-25.97 -29.81,-64.7 V 91.056137 q 2.15,-30.7 20.27,-53.82 15.62,-19.94 38.8,-29.6700004 c 48.31,-20.2899996 103.98,1.59 125.43,49.3500004 16.16,35.98 8.93,77.530003 -18.06,106.240003 q -23.02,24.49 -58.19,29.31 z M 180.06,59.286137 q -0.49,-0.74 -1.13,-1.11 a 1,1.02 47.5 0 0 -0.97,-0.03 l -7.24,3.57 a 1.44,1.43 64.8 0 0 -0.67,1.87 l 0.02,0.05 a 1.42,1.43 68.5 0 0 1.78,0.77 q 3.37,-1.2 6.89,-2.49 1.89,-0.69 1.32,-2.63 0.64,0.46 0.79,0.84 1.27,3.12 2.29,6.17 a 2.98,2.97 63.2 0 1 -1.1,3.36 q -2.1,1.48 -4.22,-0.42 a 0.6,0.59 41.5 0 0 -0.83,0.05 l -3.13,3.4 a 0.97,0.96 14.5 0 0 0.94,1.59 l 8.22,-2.01 a 1.06,1.06 0 0 0 0.8,-0.88 q 0.06,-0.4 0.22,-0.59 a 0.36,0.36 0 0 1 0.63,0.14 l 1.88,7.71 a 0.64,0.65 61.9 0 1 -0.2,0.63 q -1.18,1.05 -2.7,1.49 a 0.23,0.22 4.1 0 1 -0.27,-0.31 l 1.56,-3.22 a 1.59,1.59 0 0 0 -1.81,-2.24 l -2.52,0.61 a 0.45,0.46 74 0 0 -0.33,0.58 q 0.5,1.53 2,1.57 a 0.47,0.47 0 0 1 0.1,0.92 l -3.97,0.97 a 0.51244512,0.51244512 0 0 1 -0.3,-0.98 q 1.28,-0.48 1.17,-2.08 a 0.59,0.58 81.2 0 0 -0.71,-0.53 l -2.91,0.71 a 1.33,1.33 0 0 0 -0.58,2.27 l 3.62,3.32 a 0.69,0.69 0 0 1 -0.09,1.08 q -1.57,1.02 -2.29,2.77 a 1.94,1.94 0 0 0 0.91,2.45 l 0.16,0.09 a 1.63,1.63 0 0 0 2.27,-0.88 q 0.35,-0.93 1.17,-3.55 c 1.17,-3.7 7.36,-3.08 6.93,1.43 q -0.15,1.56 0.19,1.98 a 0.53,0.52 56.9 0 1 -0.16,0.79 l -0.77,0.4 a 1.08,1.09 76.5 0 0 -0.58,0.94 c -0.03,2.17 -3.35,6.36 -4.93,8.47 a 0.23,0.23 0 0 0 0.33,0.32 c 4.61,-3.53 8.81,-6.32 8.18,-12.94 -2.83,-29.51 -20.97,-56 -46.24,-70.72 -37.1,-21.6200004 -84.17,-15.29000047 -114.4,15.35 -15.13,15.34 -25.14,36.01 -26.59,57.57 -0.1,1.52 0.09,4.92 1,6.05 q 2.61,3.24 6.6,6.150003 a 0.06,0.06 0 0 0 0.08,-0.08 L 5.08,91.506137 a 0.82,0.86 30.9 0 1 -0.12,-0.53 l 0.61,-5.88 a 0.37,0.37 0 0 1 0.65,-0.19 q 0.11,0.13 0.27,0.72 a 1.12,1.14 85.8 0 0 0.96,0.82 l 7.39,0.83 a 2.08,2.07 3.4 0 0 2.31,-2.05 v -0.03 a 2.29,2.29 0 0 0 -1.95,-2.58 l -7.33,-1.03 a 0.91,0.89 14.8 0 0 -0.95,0.54 q -0.29,0.68 -0.31,0.69 a 0.48,0.48 0 0 1 -0.71,-0.5 l 1.04,-6.56 a 0.87,0.88 85 0 1 0.59,-0.7 l 8.16,-2.82 a 0.09,0.09 0 0 0 0,-0.17 l -5.12,-1.24 a 1.14,1.11 28.9 0 0 -1.06,0.29 l -0.72,0.73 a 0.35,0.35 0 0 1 -0.59,-0.32 q 1.38,-6.76 4.88,-13.15 a 0.34,0.34 0 0 1 0.63,0.08 l 0.17,0.69 a 0.93,0.93 0 0 0 0.81,0.71 l 5.95,0.67 a 0.23,0.23 0 0 0 0.18,-0.4 l -4.29,-3.95 a 1.09,1.09 0 0 0 -1.19,-0.19 l -0.76,0.35 a 0.35,0.35 0 0 1 -0.45,-0.49 l 5.5,-9.53 a 0.99,0.99 0 0 1 1.1,-0.47 l 2.22,0.54 a 0.3,0.3 0 0 1 0.05,0.57 l -3.51,1.6 a 1.3,1.3 0 0 0 -0.18,2.26 l 2.37,1.56 a 0.38,0.39 57.9 0 0 0.29,0.06 q 1.64,-0.32 0.16,-2.81 a 0.5,0.5 0 0 1 0.7,-0.67 l 3.43,2.26 a 0.37,0.38 70.4 0 1 -0.32,0.67 q -1.54,-0.46 -2.41,0.8 a 0.53,0.54 34.1 0 0 0.14,0.75 l 2.47,1.63 a 1.22,1.22 0 0 0 1.87,-0.81 q 0.53,-3.01 -0.26,-4.33 a 0.29,0.3 83.3 0 1 0.34,-0.43 q 0.92,0.28 1.2,1.05 a 0.47,0.46 34.7 0 0 0.9,-0.16 c -0.02,-0.84 -3.86,-3.5 -7.03,-5.94 a 1.08,1.07 47.4 0 0 -1.23,-0.06 l -0.37,0.24 a 0.39,0.38 1.9 0 1 -0.52,-0.55 c 1.66,-2.22 4.51,-6.75 6.94,-6.27 q 3.02,0.6 2.39,3.94 a 0.56,0.56 0 0 0 0.41,0.65 q 4.04,1.04 5.17,0.75 a 0.54,0.54 0 0 0 -0.1,-1.06 q -0.37,-0.02 -1.55,-0.98 a 0.36,0.36 0 0 1 0.31,-0.63 q 3.58,0.73 4.9,-0.47 c 1.21,-1.09 0.84,-2.83 -0.67,-3.25 a 1.4,1.4 0 0 0 -1.02,0.1 c -2.79,1.38 -7.22,2.73 -8.12,-1.41 q -0.62,-2.82 2.24,-4.03 a 1.1,1.12 85 0 0 0.65,-0.76 l 0.07,-0.28 a 0.54,0.54 0 0 1 0.82,-0.32 l 2.5,1.65 a 0.38,0.39 66.7 0 1 -0.28,0.7 c -1.65,-0.29 -4.39,-0.52 -4.86,1.31 a 1.58,1.56 83.1 0 0 2.26,1.8 c 2.26,-1.25 5.52,-2.6 7.39,-0.33 1.88,2.29 1.02,4.95 -1.62,6.35 a 1.73,1.71 5.4 0 0 -0.56,0.46 l -3.05,3.66 a 0.8,0.8 0 0 1 -0.81,0.27 l -5.13,-1.24 a 0.39,0.38 73.1 0 0 -0.35,0.66 l 2.18,2 a 1.13,1.14 54.4 0 0 1.24,0.2 q 0.75,-0.34 0.99,-0.34 a 0.23,0.23 0 0 1 0.19,0.35 l -7.64,11.56 a 0.35,0.34 65 0 1 -0.63,-0.23 l 0.05,-0.41 a 0.86,0.85 20.1 0 0 -0.38,-0.81 l -7.14,-4.72 a 0.85,0.85 0 0 0 -1.32,0.67 q -0.05,1.06 0.38,1.46 4.67,4.34 7.45,6.86 a 1.02,1.02 0 0 1 -0.85,1.76 q -8.62,-1.43 -10.49,-1.47 -1.06,-0.02 -1.32,1.12 a 0.85,0.86 15.8 0 0 0.55,0.99 l 7.65,2.81 a 1.32,1.31 39.7 0 0 1.11,-0.1 q 0.38,-0.23 1.25,-0.46 a 0.16,0.16 0 0 1 0.18,0.21 l -1.77,4.71 a 0.32,0.32 0 0 1 -0.62,-0.15 l 0.06,-0.59 a 0.88,0.87 13.6 0 0 -0.57,-0.92 l -8.16,-2.96 a 1.21,1.21 0 0 0 -1.62,1.04 l -0.01,0.05 a 1.77,1.78 9.5 0 0 1.33,1.88 l 8.63,2.17 a 0.93,0.92 42.5 0 1 0.08,1.77 l -8.57,2.96 a 0.25,0.25 0 0 0 0.02,0.48 l 5.64,1.37 a 0.92,0.91 26 0 0 0.92,-0.31 q 1.18,-1.4 1.34,-0.48 a 0.21,0.33 31.7 0 1 0,0.11 l -0.88,3.61 a 0.28,0.28 0 0 1 -0.54,0.02 l -0.36,-1.05 a 1.46,1.45 87.3 0 0 -1.02,-0.93 l -7.15,-1.73 a 1.56,1.55 17 0 0 -1.82,0.96 l -0.14,0.38 a 1.11,1.11 0 0 0 0.91,1.49 l 6.77,0.76 a 3.63,3.62 6.4 0 1 3.2,4 l -0.12,1.06 a 3.79,3.79 0 0 1 -4.19,3.34 l -7.13,-0.81 a 0.84,0.84 0 0 0 -0.8,1.28 l 7.1,11.250003 a 0.61,0.61 0 0 0 1.1,-0.15 q 0.67,-2.270003 2.3,-1.760003 a 0.8,0.81 24.4 0 0 0.93,-0.36 q 1.51,-2.51 1.54,-2.82 0.66,-6.57 1.52,-11.7 5.7,-34.23 34.44,-53.78 c 10.01,-6.82 24.06,-12.13 36.26,-11.73 a 0.85,0.85 0 0 1 0.8,1.01 l -0.03,0.13 a 1.36,1.37 2.9 0 1 -1.2,1.09 c -26.37,2.61 -48.42,15.77 -61.03,39.55 q -8.17,15.38 -8.6,33.18 -0.09,4.09 1.25,7.210003 c 0.57,1.33 1.38,1.72 2.77,2.67 a 1.26,1.25 20.4 0 1 0.55,1.19 l -0.23,2.07 a 0.87,0.88 15.1 0 0 0.51,0.9 q 2.92,1.28 1.21,4.85 -1.33,2.78 -2.65,5.62 a 1.27,1.28 48.6 0 0 -0.06,0.9 q 8.41,26.19 31.67,41.09 c 7.45,4.78 14.93,7 23.22,9.99 a 0.61,0.62 28.2 0 1 0.28,0.94 l -0.01,0.02 a 1.12,1.13 25.9 0 1 -1.2,0.42 q -23.84,-6.36 -40.44,-24.49 -7.73,-8.44 -11.92,-17.6 -0.65,-1.43 -3.45,-2.83 a 1.91,1.95 54.6 0 0 -1.19,-0.19 c -3.75,0.56 -9.83,1.16 -13.63,-0.27 a 0.34,0.34 0 0 0 -0.44,0.43 c 22.87,64.18 102.02,84.82 152.89,38.96 q 17.08,-15.4 25.56,-38.76 a 0.31,0.31 0 0 0 -0.4,-0.4 c -3.91,1.38 -6.43,1.19 -10.98,0.5 -3.12,-0.46 -5.87,-0.28 -7.26,2.44 q -14.21,27.89 -44.12,39.71 a 0.47,0.47 0 0 1 -0.58,-0.19 l -0.19,-0.3 a 0.58,0.58 0 0 1 0.28,-0.85 c 17.19,-6.92 31.77,-19.26 40.59,-35.6 a 2.34,2.33 60.8 0 0 0.27,-0.96 q 0.09,-2.08 -0.96,-3.87 a 1.77,1.73 36.8 0 1 -0.2,-1.29 l 1.2,-4.92 a 0.43,0.43 0 0 1 0.52,-0.32 l 0.3,0.07 a 0.11,0.1 15.9 0 1 0.08,0.13 l -1.14,4.72 a 1.21,1.21 0 0 0 1.61,1.42 c 3.14,-1.2 4.39,-12.74 5.01,-18 a 1.67,1.67 0 0 0 -0.82,-1.64 l -1.36,-0.78 a 0.57,0.57 0 0 0 -0.85,0.43 l -0.74,6.52 a 0.4,0.4 0 0 1 -0.77,0.08 q -0.3,-0.89 -0.06,-4.14 a 1.02,1.02 0 0 0 -1.69,-0.84 l -3.81,3.29 a 0.52,0.53 46.3 0 1 -0.7,-0.01 l -0.01,-0.02 a 0.5,0.5 0 0 1 -0.02,-0.72 l 5.69,-5.77 a 2.03,2.03 0 0 1 1.91,-0.55 l 4.2,1.02 a 0.47,0.48 88.3 0 0 0.57,-0.6 q -0.15,-0.5 -0.96,-1.03 -0.07,-0.05 -0.01,-0.26 0.05,-0.19 0.23,-0.29 a 0.33,0.32 52.2 0 1 0.39,0.06 q 0.67,0.68 1.34,0.78 a 0.34,0.34 0 0 0 0.35,-0.49 q -0.49,-0.92 -1.76,-1.91 a 0.23,0.23 0 0 1 -0.05,-0.31 l 0.16,-0.24 a 0.07,0.07 0 0 1 0.08,-0.02 l 1.28,0.6 a 0.32,0.32 0 0 0 0.44,-0.38 q -0.06,-0.27 -1.21,-1.39 a 1.26,1.29 24.7 0 1 -0.39,-1.090003 l 0.04,-0.38 a 0.71,0.73 19.7 0 0 -0.31,-0.68 l -1.19,-0.78 a 0.96,0.96 0 0 1 -0.43,-0.82 q 0.15,-9.71 -2.19,-17.19 -0.67,-2.13 -2.87,-3.2 a 0.36,0.35 6.2 0 0 -0.5,0.4 q 2.13,8.85 2.57,16.43 0.12,2.11 -0.23,3.44 a 1.65,1.63 77.2 0 1 -0.51,0.82 l -5.15,4.430003 a 0.41,0.41 0 0 1 -0.47,0.05 l -0.23,-0.14 a 0.39,0.39 0 0 1 -0.08,-0.62 c 2.79,-2.810003 5.54,-5.170003 4.91,-9.430003 q -1.51,-10.21 -2.16,-13.01 a 2.42,2.41 12 0 0 -0.88,-1.35 c -2.82,-2.13 -4.65,-3.01 -2.73,-7.01 q 0.81,-1.7 0.13,-3.54 c -0.75,-2 -1.07,-3.62 1.1,-4.65 q 0.66,-0.32 1.03,-0.16 a 0.35,0.35 0 0 1 0.01,0.64 q -0.59,0.27 -0.92,0.39 -0.4,0.16 -0.46,0.84 -0.12,1.57 1.02,1.94 a 0.76,0.76 0 0 0 0.75,-0.16 q 0.47,-0.44 0.74,-0.4 a 0.36,0.36 0 0 1 0.22,0.61 q -0.02,0.02 -0.13,0.08 a 0.48,0.48 0 0 0 0.04,0.85 l 1.05,0.48 a 0.31,0.31 0 0 1 -0.16,0.59 l -1.58,-0.18 a 0.58,0.59 13.5 0 0 -0.61,0.38 l -2.01,5.35 a 0.57,0.57 0 0 0 0.84,0.68 c 2.42,-1.5 6.56,2.21 7.78,4.02 a 0.21,0.2 57.9 0 0 0.27,0.07 l 0.01,-0.01 a 0.13,0.13 0 0 0 0.06,-0.17 q -1.26,-3.14 -4.38,-4.97 a 0.52,0.52 0 0 1 -0.11,-0.8 l 0.28,-0.31 a 0.15,0.14 43.7 0 1 0.21,0 l 5.03,5.03 a 0.19,0.19 0 0 0 0.32,-0.15 q -0.59,-6.28 -4.23,-11.09 a 1.03,1.02 31.9 0 1 -0.19,-0.8 q 0.02,-0.12 0.02,-0.14 a 2.01,2.02 37.1 0 0 -0.14,-1.04 q -3.28,-7.73 -8.44,-14.31 -11.2,-14.26 -27.26,-22.42 a 0.55,0.55 0 0 1 0.32,-1.03 q 0.96,0.13 2.53,0.93 12.24,6.2 22.77,17.95 16.99,18.96 19.31,45.85 0.36,4.14 0.3,13.640003 a 0.23,0.23 0 0 0 0.4,0.15 c 2.75,-3.16 5.03,-4.94 7.4,-9.260003 q 1.73,-3.17 3.47,-5.81 a 0.27,0.27 0 0 0 -0.28,-0.41 q -0.53,0.11 -0.6,0.08 a 0.46,0.46 0 0 1 -0.12,-0.78 q 1.53,-1.27 2.25,-2.73 a 1.72,1.72 0 0 0 -0.7,-2.27 l -0.08,-0.04 a 1.36,1.36 0 0 0 -1.95,0.75 c -1.1,3.26 -1.28,5.99 -4.53,6.18 -2.67,0.14 -5.08,-2.03 -4.12,-4.76 q 0.35,-0.99 -0.2,-1.6 a 0.59,0.59 0 0 1 0.25,-0.96 l 2.26,-0.78 a 0.19,0.19 0 0 0 -0.04,-0.36 l -2.2,-0.25 a 0.91,0.9 86.3 0 1 -0.78,-0.69 l -2.54,-10.37 a 0.76,0.76 0 0 1 0.21,-0.72 l 3.58,-3.59 a 0.5,0.5 0 0 0 -0.56,-0.81 l -3.16,1.44 a 0.69,0.7 84.4 0 0 -0.38,0.46 l -0.19,0.8 a 0.33,0.33 0 0 1 -0.63,0.02 q -2.21,-6.99 -6.11,-12.8 a 0.46,0.46 0 0 1 0.2,-0.68 q 0.17,-0.07 0.68,0.15 a 0.91,0.91 0 0 0 0.77,-0.02 q 1.15,-0.61 1.29,-1.03 a 2.58,2.62 14 0 0 -2.03,-3.43 q -0.51,-0.07 -1.46,0.52 a 1.01,1.01 0 0 0 -0.45,0.99 q 0.01,0.08 0.03,0.79 a 0.32,0.32 0 0 1 -0.59,0.19 l -1.96,-3.1 a 0.39,0.39 0 0 1 0.33,-0.6 q 0.42,0 1.18,0.49 a 1.18,1.13 54.4 0 0 0.92,0.17 l 9.65,-2.36 a 1.5,1.5 0 0 1 1.46,2.48 l -6.75,7.3 a 1.11,1.11 0 0 0 0.67,1.85 q 0.3,0.04 0.6,-0.1 1.4,-0.68 7.23,-3.61 a 1.18,1.19 79.7 0 0 0.65,-0.93 l 0.07,-0.6 a 0.32,0.32 0 0 1 0.58,-0.15 q 1.77,2.46 2.1,5.2 z m -155.48,-17.19 2.42,1.97 a 0.65,0.65 0 0 0 0.92,-0.1 l 0.35,-0.43 a 1.73,1.79 39.1 0 0 -0.21,-2.48 l -0.75,-0.61 a 1.73,1.79 39.1 0 0 -2.47,0.3 l -0.35,0.44 a 0.65,0.65 0 0 0 0.09,0.91 z m 143.81,9.43 q 0.25,0.39 0.4,0.55 a 0.56,0.56 0 0 0 0.79,0.01 q 2.37,-2.29 2.17,-2.61 -0.22,-0.36 -3.32,0.73 a 0.56,0.56 0 0 0 -0.35,0.71 q 0.07,0.21 0.31,0.61 z m 12.38,12.49 -3.15,1.09 a 0.57,0.57 0 0 0 -0.35,0.73 l 0.16,0.47 a 2.01,2.01 0 0 0 2.56,1.24 l 0.43,-0.15 a 2.01,2.01 0 0 0 1.24,-2.56 l -0.16,-0.47 a 0.57,0.57 0 0 0 -0.73,-0.35 z m 8.15,37.800003 -1.8,7.42 a 0.7,0.76 47.4 0 0 -0.02,0.24 l 0.13,1.69 a 1.82,1.81 64.7 0 1 -0.48,1.35 q -1.9,2.01 -0.81,5.25 0.04,0.11 -0.18,0.28 -0.28,0.22 -0.35,0.25 a 0.44,0.44 0 0 1 -0.55,-0.48 q 0.02,-0.22 -0.11,-0.6 a 0.21,0.21 0 0 0 -0.4,0.01 q -0.86,3.15 -1.83,6.29 -0.42,1.33 -1.8,1.68 a 0.59,0.59 0 0 0 -0.06,1.12 q 0.79,0.3 1.79,0.15 a 0.96,0.97 5.2 0 0 0.76,-0.64 q 0.77,-2.27 1.1,-2.65 6.51,-7.51 5.42,-16.91 a 4.25,4.17 50.8 0 1 0.16,-1.72 q 1.18,-3.89 -0.22,-8.860003 a 0.32,0.31 47.7 0 0 -0.6,-0.03 l -1.91,5.090003 a 0.62,0.61 81.2 0 1 -0.2,0.28 l -3.28,2.64 a 1.27,1.28 56.6 0 0 -0.33,1.58 c 0.89,1.71 1.12,2.93 -0.69,4.59 -1.55,1.42 -0.86,4.86 -0.94,6.13 a 1.97,2.04 61.3 0 1 -0.28,0.9 q -1.66,2.82 -0.44,6.76 a 0.31,0.3 45.8 0 0 0.58,0.01 q 1.29,-3.8 0.7,-6.8 a 0.99,0.96 59 0 1 0.18,-0.77 l 1.67,-2.14 a 0.88,0.83 64.8 0 0 0.18,-0.56 l -0.09,-2.94 a 0.81,0.83 77.5 0 1 0.51,-0.78 q 1.31,-0.53 1.63,-2.09 1.01,-4.76 2.14,-5.97 a 0.25,0.25 0 0 1 0.42,0.23 z m -183.66,1.63 q 0.13,2.05 -1.58,2.39 a 1.38,1.3 67 0 0 -0.77,2.09 q 1.4,2.12 1.84,5.03 c 0.35,2.3 2.05,2.25 3.41,3.39 a 0.87,0.87 0 0 1 -0.56,1.54 H 5.14 a 0.47,0.46 84.8 0 0 -0.45,0.55 q 1.27,6.79 8.68,6.8 a 0.49,0.49 0 0 0 0.46,-0.68 c -0.6,-1.44 -1.89,-1.51 -1.81,-3.59 q 0.07,-1.88 -2.06,-3.17 a 0.91,0.91 0 0 1 0.26,-1.67 l 0.41,-0.1 a 0.79,0.78 80.7 0 0 0.61,-0.86 q -0.1,-0.97 -0.69,-2.03 a 1.04,0.93 5 0 0 -0.3,-0.32 l -3.54,-2.34 a 1.26,1.26 0 0 1 -0.36,-1.75 l 1.39,-2.11 a 1.32,1.32 0 0 0 -0.22,-1.71 q -1.37,-1.24 -2.26,-1.46 0.1,-1.12 0.69,-2.13 a 1.33,1.27 58.2 0 0 0.17,-0.81 Q 5.93,98.996137 4.77,97.806137 a 0.31,0.31 0 0 0 -0.52,0.14 l -0.94,3.860003 a 1.36,1.36 0 0 0 1.41,1.68 z m 13.56,-3.840003 -0.58,1.200003 a 0.9,0.87 5.5 0 1 -0.59,0.47 q -2.65,0.66 -3.76,3.9 -0.17,0.52 0.22,1.07 0.34,0.47 0.51,0.71 a 0.56,0.56 0 0 1 -0.23,0.82 l -1.82,0.83 a 0.63,0.62 63 0 0 -0.28,0.88 c 0.85,1.52 -0.65,2.78 0.28,4.06 0.81,1.09 1.3,1.69 0.72,3.17 -0.8,2.03 0.83,2.54 0.33,4.23 q -0.27,0.88 1.03,2.02 1.5,1.31 1.75,2.67 a 0.47,0.47 0 0 0 0.89,0.11 q 1.17,-2.45 3.91,-4.55 a 1.18,1.22 72.9 0 0 0.47,-0.86 q 0.06,-0.83 -0.14,-1.25 a 0.83,0.82 60.2 0 1 0.27,-1.01 q 1.41,-1.02 1.2,-3.08 a 1.03,1.05 63.8 0 1 0.29,-0.83 l 1.38,-1.37 a 1.09,1.1 68.6 0 0 0.32,-0.72 q 0.11,-2.69 -2.37,-3 a 0.66,0.66 0 0 1 -0.4,-1.1 q 1.57,-1.71 0.9,-2.38 -2.52,-2.51 -3.74,-5.950003 a 0.31,0.3 48.7 0 0 -0.56,-0.04 z m -11.3,2.080003 q 0,0.33 2.14,5.02 0.74,1.63 0.4,2.11 -0.44,0.63 0.2,1 a 0.33,0.33 0 0 0 0.5,-0.25 q 0.2,-1.66 0.69,-2.07 a 2.04,1.94 52 0 0 0.27,-2.75 q -1.2,-1.59 -3.68,-3.34 a 0.33,0.33 0 0 0 -0.52,0.28 z m 172.3,0.14 q -0.2,0.02 -5.34,5.37 -1.96,2.04 -2.35,3.53 c -0.47,1.86 1.04,2.68 0.06,5.07 q -0.56,1.37 -0.91,2.58 a 1.48,1.5 35.4 0 0 0.21,1.29 c 1.15,1.66 2.88,3.83 2.24,5.72 a 0.54,0.54 0 0 0 0.38,0.7 l 1.1,0.27 a 0.56,0.57 11.5 0 0 0.68,-0.46 l 0.42,-2.54 a 1.61,1.61 0 0 1 0.31,-0.74 c 2.31,-3.14 3.87,-5.08 3.67,-8.81 a 4.39,4.29 56.3 0 1 0.37,-1.98 q 1.81,-4.06 -0.42,-7.73 -0.23,-0.38 -0.23,-0.9 -0.01,-0.46 0.16,-0.9 a 0.34,0.34 0 0 0 -0.35,-0.47 z"
     id="path1" />
  <path
     fill="#ffffff"
     d="m 98.24,10.976137 q 0.01,2.03 0.01,2.07 a 0.37,0.38 29.1 0 1 -0.71,0.2 q -0.71,-1.49 -1.75,-1.73 a 0.66,0.67 6.8 0 0 -0.82,0.65 v 2.71 a 1.37,1.37 0 0 0 2.03,1.2 q 1.94,-1.06 3.1,-2.36 a 0.36,0.36 0 0 1 0.61,0.32 l -0.56,2.28 a 0.87,0.88 6.7 0 1 -0.85,0.68 h -7.71 a 0.4,0.4 0 0 1 -0.25,-0.71 l 0.41,-0.34 a 1.44,1.47 71.7 0 0 0.52,-1.01 q 0.01,-0.08 0,-3.94 -0.02,-3.8600005 -0.03,-3.9400005 a 1.47,1.44 17.8 0 0 -0.53,-1.01 l -0.41,-0.33 a 0.4,0.4 0 0 1 0.24,-0.71 l 7.71,-0.06 a 0.88,0.87 82.9 0 1 0.86,0.67 l 0.58,2.28 a 0.36,0.36 0 0 1 -0.61,0.32 q -1.17,-1.29 -3.12,-2.34 a 1.37,1.37 0 0 0 -2.02,1.22 l 0.02,2.71 a 0.67,0.66 82.8 0 0 0.83,0.6400005 q 1.03,-0.24 1.73,-1.7400005 a 0.38,0.37 60.5 0 1 0.72,0.2 q -0.01,0.04 0,2.0700005 z"
     id="path2" />
  <path
     fill="#ffffff"
     d="m 90.75,11.026137 c 0.75,6.33 -4.19,6.77 -9.68,7.25 a 0.34,0.34 0 0 1 -0.27,-0.58 l 0.48,-0.49 a 1.37,1.38 65.6 0 0 0.41,-1.09 q -0.05,-0.74 -0.43,-3.97 -0.38,-3.2300005 -0.5,-3.9600005 a 1.38,1.37 11 0 0 -0.66,-0.96 l -0.58,-0.37 a 0.34,0.34 0 0 1 0.13,-0.63 c 5.45,-0.8 10.36,-1.52 11.1,4.8000005 z m -7.42,-3.9100005 1.15,9.3900005 a 0.53,0.53 0 0 0 0.59,0.46 l 0.16,-0.01 a 3.86,3.39 83 0 0 2.9,-4.25 L 87.78,9.9261365 a 3.86,3.39 83 0 0 -3.83,-3.42 l -0.16,0.02 a 0.53,0.53 0 0 0 -0.46,0.59 z"
     id="path3" />
  <path
     fill="#ffffff"
     d="m 111.27,5.6961365 q 4.89,0.91 7.3,1.94 c 2.48,1.06 1.67,4.2700005 -0.79,5.0500005 a 0.23,0.23 0 0 0 -0.07,0.4 c 2.19,1.61 1.37,3.02 0.92,5.06 a 0.29,0.3 18.8 0 0 0.16,0.33 l 0.23,0.11 a 0.14,0.13 20.3 0 0 0.19,-0.08 l 2.33,-8.6400005 a 0.42,0.39 38.8 0 0 -0.05,-0.33 l -0.65,-1.03 a 0.39,0.38 84.1 0 1 0.46,-0.57 l 4.37,1.63 a 0.38,0.38 0 0 1 0.07,0.6700005 q -0.25,0.17 -0.64,0.16 a 1.01,1 8.8 0 0 -0.98,0.71 l -2.24,7.11 a 2.04,2.05 13.3 0 0 1.63,2.64 l 0.11,0.02 a 2.52,2.53 15.1 0 0 2.92,-1.68 l 2.24,-6.83 a 0.81,0.8 25.9 0 0 -0.32,-0.92 l -0.6,-0.41 a 0.3,0.3 0 0 1 0,-0.5 q 0.09,-0.05 0.27,-0.11 0.21,-0.07 0.3,-0.05 4.98,1.47 11.11,4.74 a 0.94,0.94 0 0 1 0.47,1.05 l -0.56,2.28 a 0.35,0.35 0 0 1 -0.69,-0.06 q -0.13,-1.82 -2.28,-3.73 a 1.04,1.04 0 0 0 -1.63,0.33 l -1.36,2.81 a 0.53,0.53 0 0 0 0.37,0.75 q 1.43,0.29 2.65,-0.83 a 0.39,0.39 0 0 1 0.61,0.46 l -1.86,3.84 a 0.39,0.39 0 0 1 -0.74,-0.23 q 0.2,-1.53 -1.1,-2.34 a 0.53,0.53 0 0 0 -0.76,0.22 l -1.44,2.96 a 0.82,0.82 0 0 0 0.39,1.1 q 2.26,1.09 5.11,-0.28 a 0.41,0.41 0 0 1 0.48,0.64 l -1.83,2 a 0.64,0.63 34.2 0 1 -0.75,0.14 l -7.23,-3.4 a 0.5,0.5 0 0 1 0.15,-0.94 q 0.01,0 0.36,0.1 a 0.69,0.69 0 0 0 0.82,-0.37 l 3.59,-7.61 a 1.32,1.33 22.1 0 0 -0.76,-1.82 l -0.15,-0.06 a 1.29,1.29 0 0 0 -1.67,0.8 l -2.45,7.19 a 1.29,1.37 73.2 0 1 -0.24,0.42 q -2.3,2.53 -5.62,0.45 a 0.24,0.24 0 0 0 -0.33,0.34 q 1.91,2.81 5.12,4.5 a 1.14,1.14 0 0 1 -0.8,2.11 l -1.73,-0.42 a 0.56,0.55 13.4 0 0 -0.66,0.4 l -0.23,0.98 a 0.46,0.46 0 0 0 0.41,0.57 q 2.24,0.15 4.33,1.63 a 1.24,1.24 0 0 1 -1.01,2.22 l -3.23,-0.78 a 0.7,0.66 75.1 0 1 -0.37,-0.23 q -0.57,-0.67 -0.22,-1.91 0.21,-0.74 0.03,-0.88 -0.28,-0.24 -0.34,-0.32 a 1.41,1.46 24.1 0 1 -0.32,-0.88 c -0.05,-3.61 -2.18,-7.41 -5.86,-9.03 -2.3,-1.02 -4.61,-3.29 -8.2,-3.04 q -1.78,0.13 -5.48,1.06 a 0.32,0.32 0 0 1 -0.27,-0.57 q 3.6,-2.57 7.41,-2.13 a 0.57,0.57 0 0 0 0.62,-0.43 l 1.54,-6.3500005 a 1.09,1.09 0 0 0 -0.32,-1.07 l -0.53,-0.49 a 0.33,0.33 0 0 1 0.29,-0.57 z m 3.27,2.22 -0.77,2.8800005 a 0.68,0.68 0 0 0 0.48,0.84 l 0.39,0.1 a 2.08,1.96 14.9 0 0 2.51,-1.36 l 0.11,-0.4100005 a 2.08,1.96 14.9 0 0 -1.51,-2.43 l -0.38,-0.1 a 0.68,0.68 0 0 0 -0.83,0.48 z m -1.73,7.8700005 q 0.1,0.19 0.14,0.22 0.57,0.35 2.29,1.11 a 0.6,0.6 0 0 0 0.79,-0.31 q 0.79,-1.8 0.35,-2.72 -0.44,-0.93 -2.33,-1.45 a 0.6,0.6 0 0 0 -0.74,0.42 q -0.5,1.82 -0.58,2.48 -0.01,0.05 0.08,0.25 z"
     id="path4" />
  <circle
     fill="#ffffff"
     cx="104.35"
     cy="10.716137"
     r="1.6"
     id="circle4" />
  <path
     fill="#ffffff"
     d="m 53.14,27.386137 a 0.45,0.45 0 0 0 0.46,0.5 l 0.23,-0.17 a 0.34,0.35 66.2 0 0 0.14,-0.34 l -1.73,-10.4 a 1.46,1.46 0 0 1 2.51,-1.24 q 4.56,4.88 7.43,7.41 0.23,0.2 0.63,0.22 a 0.61,0.61 0 0 0 0.58,-0.87 l -3.8,-8.34 a 0.59,0.6 73 0 0 -0.65,-0.34 q -0.5,0.09 -0.67,-0.05 a 0.48,0.48 0 0 1 0.13,-0.81 q 3.48,-1.39 4.36,-1.73 c 6.62,-2.5800005 11.21,6.46 5.85,10.69 a 0.43,0.32 8 0 1 -0.09,0.05 l -9.45,4.11 a 0.2,0.19 81.1 0 1 -0.27,-0.2 q 0,-0.07 0.33,-0.49 a 0.9,0.91 48.7 0 0 0.07,-1 q -0.56,-1 -1,-1.23 a 2.5,2.51 18.9 0 0 -3.61,1.78 q -0.07,0.33 0.41,1.32 a 0.86,0.85 75.3 0 0 0.81,0.48 q 0.62,-0.02 0.78,0.07 a 0.46,0.45 40.9 0 1 0.06,0.75 q -1.93,1.51 -3.24,1.53 a 0.22,0.2 20.8 0 0 -0.15,0.06 l -10.85,8.74 a 0.32,0.32 0 0 1 -0.52,-0.31 q 0.01,-0.02 0.24,-0.32 a 1.23,1.22 44.6 0 0 -0.02,-1.52 l -5.07,-6.28 a 1.21,1.22 66.3 0 0 -1.14,-0.44 l -1.03,0.18 a 0.35,0.35 0 0 1 -0.28,-0.62 l 3.79,-3.05 a 0.35,0.34 80.7 0 1 0.54,0.39 l -0.33,0.88 a 0.7,0.7 0 0 0 0.12,0.69 l 5.26,6.09 a 1.67,1.66 51.2 0 0 2.24,0.25 l 0.03,-0.01 a 1.63,1.62 52.5 0 0 0.29,-2.22 l -4.69,-6.48 a 0.89,0.89 0 0 0 -0.85,-0.35 l -0.66,0.12 a 0.45,0.45 0 0 1 -0.34,-0.8 c 3.2,-2.37 6.48,-5.84 10.69,-2.7 q 2.93,2.19 2.46,6 z m 9.23,-14.2 3.23,8.12 a 0.82,0.82 0 0 0 1.07,0.46 l 0.16,-0.06 a 3.78,3.08 68.3 0 0 1.47,-4.65 l -1.05,-2.62 a 3.78,3.08 68.3 0 0 -4.26,-2.38 l -0.16,0.07 a 0.82,0.82 0 0 0 -0.46,1.06 z m -6.87,9.19 q 0.42,-0.21 0.59,-0.35 a 0.56,0.56 0 0 0 0.07,-0.78 q -2.04,-2.54 -2.41,-2.36 -0.34,0.17 0.46,3.34 a 0.56,0.56 0 0 0 0.67,0.4 q 0.21,-0.05 0.62,-0.25 z m -11.6,1 5.08,7.02 a 0.84,0.84 0 0 0 1.17,0.18 l 0.25,-0.17 a 3.78,2.88 54.1 0 0 0.11,-4.75 l -1.63,-2.25 a 3.78,2.88 54.1 0 0 -4.55,-1.38 l -0.24,0.18 a 0.84,0.84 0 0 0 -0.19,1.17 z"
     id="path5" />
  <circle
     fill="#ffffff"
     cx="74.650002"
     cy="13.216137"
     r="1.59"
     id="circle5" />
  <path
     fill="#ffffff"
     d="m 147.84,20.536137 q 2.25,0.89 3.04,1.81 a 0.41,0.41 0 0 1 -0.31,0.68 h -0.77 a 0.93,0.94 17 0 0 -0.78,0.42 l -5.18,7.84 a 0.86,0.86 0 0 1 -1.57,-0.47 v -9.51 a 0.16,0.16 0 0 0 -0.3,-0.09 l -3.38,5.12 a 1.04,1.03 42.8 0 0 0.05,1.21 q 0.53,0.68 0.52,0.94 a 0.43,0.43 0 0 1 -0.64,0.35 l -2.95,-1.73 a 0.38,0.38 0 0 1 0.19,-0.71 h 1.01 a 1.03,1.02 15.9 0 0 0.87,-0.48 l 4.08,-6.49 a 1.26,1.19 70 0 0 0.16,-0.37 q 0.2,-0.87 -0.52,-1.93 a 0.39,0.39 0 0 1 0.54,-0.54 l 2.78,1.83 a 0.64,0.65 16.4 0 1 0.29,0.54 v 8.46 a 0.05,0.05 0 0 0 0.09,0.04 q 0.47,-0.47 1.69,-2.71 c 0.73,-1.35 1.92,-2.14 0.79,-3.83 a 0.25,0.25 0 0 1 0.3,-0.38 z"
     id="path6" />
  <path
     fill="#ffffff"
     d="m 105.54,50.966137 -2.92,-5.06 a 2.91,2.9 74.9 0 0 -2.51,-1.45 h -3.58 a 0.59,0.65 62.5 0 1 -0.31,-0.08 l -2.63,-1.52 a 0.51,0.52 60.5 0 0 -0.26,-0.07 c -5.59,0.18 -6.97,3.43 -10.12,7.17 q -9.54,11.35 -13.92,25.63 a 1.22,1.22 0 0 0 1,1.57 l 4.33,0.6 a 0.64,0.65 2.8 0 1 0.54,0.6 v 0.02 a 0.6,0.6 0 0 1 -0.6,0.57 l -37.23,0.03 a 0.13,0.13 0 0 1 -0.13,-0.13 v -0.28 a 0.35,0.35 0 0 1 0.32,-0.35 q 12.39,-0.94 22.72,-0.74 c 3.75,0.07 5.32,-1.79 6.99,-5.18 2.88,-5.83 4.9,-10.15 8.93,-15.41 q 6.35,-8.29 6.7,-8.75 c 2.7,-3.56 4.63,-4.65 8.99,-7.05 1.74,-0.95 1.89,-2.9 0.47,-4.22 q -0.55,-0.5 -0.62,-1.05 a 1.66,1.66 0 0 1 0.16,-0.97 q 1.78,-3.53 1.78,-4.37 -0.03,-4.16 1.51,-7.11 a 0.68,0.68 0 0 0 -0.24,-0.88 q -1.26,-0.81 -1.23,-2.47 a 0.42,0.42 0 0 1 0.77,-0.22 q 1.12,1.73 2.56,2.26 a 0.42,0.42 0 0 1 0.22,0.61 l -1.66,2.88 a 2.52,2.59 57.8 0 0 -0.34,1.41 q 0.23,4.81 -1.59,8.23 a 0.77,0.77 0 0 0 0.8,1.12 l 1.3,-0.22 a 0.53,0.53 0 0 1 0.43,0.93 q -0.86,0.7 -0.89,0.72 a 0.51,0.51 0 0 0 0.31,0.9 l 1.7,0.1 a 0.34,0.34 0 0 1 0.32,0.34 v 0.3 a 0.23,0.23 0 0 1 -0.23,0.23 h -1.07 a 0.38,0.38 0 0 0 -0.31,0.6 q 0.42,0.58 -0.08,1.46 a 1.11,1.05 17.6 0 0 0.87,1.57 c 1.58,0.19 3.43,-0.25 4.64,0.25 q 2.17,0.88 3.62,3 3.12,4.6 4.37,6.29 a 0.68,0.68 0 0 1 -0.84,1.02 q -2.14,-1.02 -5.23,-0.61 a 1.72,1.69 54.5 0 1 -1.01,-0.18 q -1.13,-0.58 -1.69,-0.58 a 1.62,1.65 26.1 0 0 -1.02,0.36 q -3.3,2.64 -6.23,6.07 c -2.72,3.19 -3.5,4.61 -6.73,6.56 q -2.5,1.52 -4.87,4.7 a 0.39,0.4 37.2 0 1 -0.55,0.08 q -0.3,-0.23 -0.16,-0.49 1.8,-3.19 3.03,-7.93 c 1.18,-4.54 3.22,-10.08 8.19,-11.39 a 1.96,2.03 44 0 1 0.86,-0.03 q 2.77,0.52 5.79,-0.26 a 0.33,0.33 0 0 0 0.08,-0.61 l -0.74,-0.43 a 1.79,1.77 52.4 0 0 -1.35,-0.18 c -2.37,0.62 -6.61,2.05 -8.18,-0.13 a 0.38,0.38 0 0 1 0.5,-0.55 c 1.95,1.14 3.66,0.62 6.09,-0.56 q 2.41,-1.18 5.17,1.01 a 2.09,1.97 6.4 0 1 0.5,0.59 q 1.11,1.95 1.91,2.76 a 0.59,0.59 0 0 0 0.91,-0.73 l -3.03,-4.81 a 0.28,0.28 0 0 1 0.42,-0.37 q 2.33,1.91 3.31,5.27 a 0.04,0.06 83 0 0 0.05,0.03 h 0.69 a 0.28,0.28 0 0 0 0.25,-0.42 z"
     id="path7" />
  <path
     fill="#ffffff"
     d="m 103.62,20.826137 q 0.03,0 2.95,2.4 a 2.85,2.76 70.7 0 0 1.12,0.56 l 2.89,0.7 a 1.37,1.4 74.5 0 1 0.67,0.37 l 3.79,3.8 a 0.36,0.36 0 0 1 -0.23,0.61 q -0.43,0.02 -1.53,-0.58 -3.51,-1.91 -6.91,-4.07 -0.4,-0.25 -3,-3.21 a 0.35,0.35 0 0 1 0.25,-0.58 z"
     id="path8" />
  <path
     fill="#ffffff"
     d="m 140.09,52.986137 c -1.1,-4.15 -2.46,-14.83 4.76,-13.68 a 0.31,0.31 0 0 1 0.25,0.38 l -0.06,0.25 a 0.05,0.05 0 0 1 -0.06,0.04 c -1.38,-0.17 -3.06,-0.04 -3.65,1.47 -2.1,5.27 0.85,11.08 3.35,15.96 1.3,2.53 1.93,4.91 -1.28,5.84 a 0.36,0.36 0 0 1 -0.43,-0.51 q 0.01,-0.03 0.05,-0.09 a 1.19,1.18 44.7 0 0 -0.01,-1.04 q -3.95,-8 -7.65,-12.99 -1.91,-2.58 -5.75,-3.51 -6.21,-1.49 -10.98,-2.51 c -2.37,-0.5 -4.18,-4.07 -5.3,-6.12 a 0.65,0.65 0 0 0 -0.97,-0.19 l -1.41,1.14 a 1.15,1.11 25.5 0 1 -0.74,0.25 q -1.55,-0.06 -1.95,-0.94 a 0.24,0.24 0 0 1 0.34,-0.31 q 1.6,0.94 2.82,-1.14 a 0.39,0.4 20.4 0 0 -0.27,-0.59 q -0.32,-0.05 -1.15,0.22 a 0.49,0.49 0 0 1 -0.64,-0.49 q 0.01,-0.19 0,-0.38 a 0.8,0.83 13 0 0 -0.41,-0.68 l -1.58,-0.92 a 3.54,3.5 85.9 0 1 -1.04,-0.91 l -6.56,-8.64 a 0.47,0.47 0 0 1 0.08,-0.66 l 0.2,-0.16 a 0.05,0.06 49.7 0 1 0.07,0 q 3.38,2.92 6.21,7.11 c 1.53,2.26 4.15,3.12 6.55,4.58 1.8,1.1 2.77,3.63 4.85,4.83 a 1.26,1.27 21.9 0 0 1.86,-0.8 l 0.69,-2.83 a 0.24,0.24 0 0 1 0.46,0 c 0.74,2.97 2.9,5.03 5.96,5.93 3.77,1.1 6.87,2.42 9.03,5.95 q 3.56,5.83 3.99,6.33 a 0.21,0.21 0 0 0 0.37,-0.19 z"
     id="path9" />
  <path
     fill="#ffffff"
     d="m 113.38,24.776137 a 0.34,0.34 0 0 1 0.06,-0.48 l 0.28,-0.23 a 0.21,0.21 0 0 1 0.31,0.04 q 1.02,1.47 2.31,2.26 a 0.96,0.96 0 0 0 1.35,-1.28 q -0.64,-1.19 -0.56,-2.25 a 0.27,0.27 0 0 1 0.49,-0.13 q 1.05,1.65 1.58,3.4 1.38,4.63 -0.89,4.32 a 1.05,1.06 75.2 0 1 -0.68,-0.39 z"
     id="path10" />
  <path
     fill="#ffffff"
     d="m 156.4099,26.267437 a 5.43,6.45 43.5 0 1 -0.5011,8.4165 5.43,6.45 43.5 0 1 -8.3787,0.9409 5.43,6.45 43.5 0 1 0.5011,-8.4165 5.43,6.45 43.5 0 1 8.3787,-0.9409 z m -0.8055,0.4484 a 2.62,5.55 40.5 0 0 -5.5967,2.5187 2.62,5.55 40.5 0 0 -1.6121,5.9219 2.62,5.55 40.5 0 0 5.5967,-2.5187 2.62,5.55 40.5 0 0 1.6121,-5.9219 z"
     id="path11" />
  <path
     fill="#ffffff"
     d="m 38.65,50.996137 -0.03,-0.02 a 0.5,0.51 38.8 0 1 -0.08,-0.76 q 2.77,-2.99 2.88,-3.08 c 11.74,-9.77 28.29,-18.52 43.8,-19.47 a 1.14,1.14 0 0 1 1.21,1.08 v 0.05 a 1.19,1.2 85.5 0 1 -1.08,1.26 c -13.28,1.38 -26.26,6.95 -37.44,14.06 q -2.33,1.47 -8.35,6.82 a 0.73,0.74 41.9 0 1 -0.91,0.06 z"
     id="path12" />
  <path
     fill="#ffffff"
     d="m 108.56,28.596137 9.39,3.89 a 0.78,0.79 5.5 0 1 0.47,0.58 q 0.37,2.04 -0.49,3.32 a 0.88,0.88 0 0 1 -1.61,-0.45 c -0.19,-3.69 -5.28,-5.23 -8.08,-6.86 a 0.26,0.26 0 0 1 -0.1,-0.34 v -0.01 a 0.35,0.34 26.9 0 1 0.42,-0.13 z"
     id="path13" />
  <path
     fill="#ffffff"
     d="m 100.25,31.386137 a 0.25,0.25 0 0 1 -0.21,0.4 q -1.12,-0.09 -1.76,0.53 a 0.45,0.44 62.7 0 1 -0.75,-0.24 q -0.18,-1.06 -1.46,-2 a 0.65,0.65 0 0 1 0.55,-1.15 q 2.16,0.55 3.63,2.46 z"
     id="path14" />
  <path
     fill="#ffffff"
     d="m 154.2,36.646137 a 0.43,0.43 0 0 1 0.78,0.36 q -0.41,1.41 -0.33,3.39 a 2.22,2.22 0 0 0 2.1,2.13 l 0.21,0.02 a 1.51,1.51 0 0 0 1.54,-1.9 q -0.25,-0.96 -0.98,-3.09 c -1.22,-3.57 1.58,-6.75 5.13,-5.04 a 1.18,1.29 87.3 0 1 0.47,0.39 l 2.11,2.95 a 0.43,0.42 44.4 0 1 0.01,0.48 l -1.39,2.11 a 0.46,0.46 0 0 1 -0.83,-0.34 q 0.3,-1.54 0.25,-2.38 -0.1,-2.02 -1.36,-2.41 a 1.64,1.59 86.5 0 0 -1.91,2.23 q 0.77,1.8 1.45,3.94 a 1.83,1.87 43.8 0 1 0.01,1.05 c -1.17,4.01 -5.67,4.57 -7.56,0.76 a 2.71,2.73 3.8 0 0 -0.87,-1 q -0.07,-0.05 -0.24,-0.12 a 0.64,0.64 0 0 1 -0.3,-0.95 z"
     id="path15" />
  <path
     fill="#ffffff"
     d="m 125.96,38.576137 c -1.74,-0.74 -2.5,-1.59 -2.61,-3.42 a 0.41,0.41 0 0 1 0.46,-0.44 q 1.73,0.19 3.3,0.86 c 1.73,0.74 2.49,1.59 2.6,3.42 a 0.41,0.41 0 0 1 -0.45,0.44 q -1.73,-0.19 -3.3,-0.86 z"
     id="path16" />
  <path
     fill="#ffffff"
     d="m 33.65,64.836137 q 0.48,-1.01 1.8,-2.19 10.55,-9.4 26.49,-16.51 5.23,-2.33 10.22,-3.38 a 0.85,0.85 0 0 1 1.02,0.92 l -0.04,0.37 a 1.44,1.43 85.9 0 1 -1.06,1.23 q -21.74,5.88 -37.56,20.21 a 0.55,0.55 0 0 1 -0.87,-0.65 z"
     id="path17" />
  <circle
     fill="#ffffff"
     cx="165.16"
     cy="44.256138"
     r="1.59"
     id="circle17" />
  <path
     fill="#ffffff"
     d="m 269.15,138.46614 c 15.71,0 19.89,-9.09 19.87,-22.99 q -0.05,-41.420003 -0.01,-66.910003 a 0.61,0.61 0 0 1 0.61,-0.61 h 28.43 a 0.67,0.67 0 0 1 0.67,0.67 q 0.11,55.150003 -0.07,72.300003 -0.06,5.73 -2.1,13.33 c -5.45,20.27 -21.13,29.08 -41.8,29.87 q -2.26,0.09 -5.6,0.09 -3.33,0 -5.59,-0.09 c -20.67,-0.77 -36.36,-9.57 -41.82,-29.84 q -2.05,-7.6 -2.11,-13.33 -0.19,-17.15 -0.12,-72.300003 a 0.67,0.67 0 0 1 0.67,-0.67 l 28.43,-0.02 a 0.61,0.61 0 0 1 0.61,0.61 q 0.06,25.49 0.04,66.910003 c -0.01,13.9 4.17,22.99 19.89,22.98 z"
     id="path18" />
  <path
     fill="#ffffff"
     d="m 338.94,47.996137 q 46.16,-0.15 59.8,0.06 c 7.2,0.11 16.85,2.23 23.05,6.35 q 10.55,7.02 11.09,20.15 c 0.46,10.89 -4.58,19.32 -13.84,24.5 a 0.28,0.28 0 0 0 0.03,0.5 q 20.12,8.320003 18.31,30.900003 -1.65,20.64 -20.16,27.69 -9.4,3.58 -20.03,3.69 -28.61,0.29 -58.36,0.08 a 0.58,0.58 0 0 1 -0.58,-0.58 V 48.676137 a 0.69,0.68 0 0 1 0.69,-0.68 z m 29.29,23.57 0.04,20.74 a 0.38,0.38 0 0 0 0.38,0.38 l 23.31,-0.04 a 10.2,11.09 89.9 0 0 11.07,-10.22 v -1.1 a 10.2,11.09 89.9 0 0 -11.11,-10.18 l -23.31,0.04 a 0.38,0.38 0 0 0 -0.38,0.38 z m 0.11,40.660003 -0.18,25.32 a 0.3,0.3 0 0 0 0.3,0.3 l 25.42,0.18 a 13.72,11.83 0.4 0 0 13.8,-11.73 l 0.02,-2.26 a 13.72,11.83 0.4 0 0 -13.64,-11.93 l -25.42,-0.18 a 0.3,0.3 0 0 0 -0.3,0.3 z"
     id="path19" />
  <path
     fill="#ffffff"
     d="m 557,161.12614 v 0.85 l -30.22,-0.03 a 0.81,0.8 80.3 0 1 -0.76,-0.54 l -6.75,-19.52 a 0.61,0.62 80.9 0 0 -0.59,-0.42 h -38.51 a 0.25,0.25 0 0 0 -0.23,0.16 l -7.55,20.14 a 0.28,0.28 0 0 1 -0.26,0.18 h -29.91 a 0.44,0.45 10.2 0 1 -0.41,-0.6 L 484.17,48.276137 a 0.49,0.48 10.7 0 1 0.45,-0.3 h 29.48 a 0.81,0.82 79.5 0 1 0.76,0.52 z m -70.29,-42.35 a 0.3,0.3 0 0 0 0.29,0.4 l 24.53,0.08 a 0.3,0.3 0 0 0 0.29,-0.39 L 499.68,80.506137 a 0.3,0.3 0 0 0 -0.57,0 z"
     id="path20" />
  <path
     fill="#ffffff"
     d="m 37.97,75.086137 a 0.64,0.65 11.7 0 1 -0.7,-1.07 q 12.01,-10.56 28.15,-16.01 a 0.92,0.93 75.6 0 1 1.21,0.71 l 0.01,0.05 a 1.31,1.31 0 0 1 -0.8,1.45 q -2.25,0.89 -6.96,2.63 -10.08,3.72 -19.94,11.54 -0.73,0.59 -0.97,0.7 z"
     id="path21" />
  <path
     fill="#ffffff"
     d="m 106.85,175.29614 c 7.91,0.83 6.14,17.58 -1.92,11.91 a 2.65,2.63 3 0 1 -0.77,-0.85 c -1.51,-2.66 -2.44,-8.6 0.92,-10.46 a 0.14,0.14 0 0 0 -0.08,-0.26 l -7.73,0.75 a 0.18,0.2 12.3 0 0 -0.15,0.11 v 0.02 a 0.32,0.31 84.2 0 0 0.36,0.3 q 1.63,-0.22 2.93,0.91 a 1.49,1.51 13.7 0 1 0.48,0.8 q 0.52,2.33 -0.61,3.73 a 0.56,0.57 51.7 0 0 -0.07,0.58 l 2.72,5.97 a 0.17,0.18 77.3 0 1 -0.16,0.25 h -2.01 a 0.4,0.41 85.9 0 1 -0.4,-0.34 q -0.44,-2.66 -2.39,-5.33 a 0.85,0.85 0 0 0 -1.54,0.53 l 0.16,4.85 a 0.22,0.22 0 0 1 -0.22,0.22 h -2 a 0.19,0.19 0 0 1 -0.19,-0.19 v -11.54 a 0.61,0.61 0 0 0 -0.61,-0.61 h -0.31 a 0.66,0.66 0 0 0 -0.62,0.43 l -0.38,1 a 0.63,0.62 31.4 0 1 -1.01,0.24 l -0.57,-0.52 a 1.36,1.35 17.1 0 0 -2.26,1.19 c 0.3,2.01 1.01,4.45 -0.1,6.29 q -1.79,2.99 -5.38,2.67 a 1.4,1.41 2.2 0 1 -1.28,-1.39 v -0.56 a 0.69,0.7 11.7 0 1 0.97,-0.64 q 2.7,1.16 3.95,-1.95 a 2.65,2.6 54.9 0 0 0.19,-1.17 l -0.23,-3.57 a 3.48,3.46 57.6 0 1 0.41,-1.86 q 0.11,-0.2 0.88,-0.69 a 0.35,0.35 0 0 0 -0.1,-0.63 c -2.4,-0.63 -5.42,-1.5 -5.29,-4.65 a 1.84,2.16 2.1 0 1 1.92,-2.09 q 2.57,0.11 5.08,-1.57 a 0.87,0.87 0 0 0 0.35,-0.44 l 2.35,-6.27 a 1.67,1.67 0 0 0 -1.56,-2.25 l -34.4,-0.05 a 0.58,0.57 0.5 0 1 -0.58,-0.58 v -0.03 a 0.44,0.44 0 0 1 0.43,-0.44 l 13.54,-0.37 a 2.15,1.96 25.1 0 1 0.3,0.02 q 1.56,0.3 2.63,0.24 6.86,-0.35 12.24,-0.34 2.35,0 3.93,-0.78 a 0.58,0.59 53.1 0 0 0.14,-0.95 l -2,-1.83 a 1.1,1.09 62.3 0 0 -0.89,-0.28 q -2.47,0.37 -4.66,-0.9 c -2.48,-1.44 -4.64,0.24 -7.33,-0.04 a 0.91,0.91 0 0 1 -0.81,-0.72 q -0.59,-2.72 -4.32,-2.23 a 1.8,1.8 0 0 1 -2.03,-1.76 q -0.04,-3.85 -0.4,-9.2 c -0.44,-6.55 -2.01,-12.32 -3.22,-19.8 q -0.95,-5.88 3.21,-12.45 a 0.88,0.88 0 0 0 0,-0.96 c -0.69,-1.05 -0.37,-2.01 0.65,-2.73 q 2.31,-1.62 3.67,-4.730003 a 1.54,1.55 5.3 0 1 1.04,-0.87 l 1.55,-0.38 a 0.65,0.64 82.8 0 0 0.49,-0.64 q -0.02,-1.75 2.34,-1.84 a 0.79,0.8 8.7 0 0 0.72,-0.53 q 0.11,-0.3 -0.23,-0.78 a 0.21,0.21 0 0 1 0.24,-0.32 q 0.86,0.28 1.23,-0.36 a 0.83,0.84 22.5 0 1 0.92,-0.39 q 2.13,0.53 4.36,0.38 7.95,-0.55 15,-0.31 a 5.27,5.28 56.6 0 1 1.72,0.35 q 2.22,0.84 4.04,0.88 a 2.3,2.28 7.3 0 0 2.28,-1.75 q 1.59,-6.46 -3.98,-8.84 a 3.05,3.05 0 0 1 -1.83,-3.14 l 0.68,-5.97 a 0.74,0.73 80.8 0 0 -1.03,-0.75 l -12.38,5.64 a 0.21,0.2 32.4 0 0 0.09,0.39 H 99.1 a 0.32,0.32 0 0 1 0.32,0.32 v 0.49 a 0.08,0.09 0 0 1 -0.08,0.09 H 81.57 a 0.44,0.44 0 0 1 -0.11,-0.87 c 3.63,-0.95 6.86,-1.92 10.22,-4 q 6.27,-3.88 8.89,-5.12 a 0.62,0.62 0 0 0 0.09,-1.07 q -1.51,-1.05 -1.61,-2.04 a 0.7,0.7 0 0 1 1.14,-0.61 q 6.41,5.26 1.95,11.62 a 1.65,1.66 40.8 0 0 0.15,2.09 q 1.03,1.1 2.78,1.98 5.31,2.67 8.37,-2.13 a 0.18,0.19 64.6 0 1 0.34,0.12 q -0.5,3.74 -4.33,4.32 a 0.54,0.54 0 0 0 -0.37,0.84 q 0.96,1.39 1.37,3.03 a 0.62,0.62 0 0 0 0.86,0.41 l 2.02,-0.92 a 0.31,0.32 63.5 0 1 0.41,0.13 l 0.16,0.27 a 0.32,0.32 0 0 1 -0.17,0.46 c -2.94,1.12 -6.5,6.38 -6.49,9.57 a 0.81,0.81 0 0 0 0.67,0.8 c 9,1.67 16.75,4.450003 20.88,-3.57 a 0.78,0.78 0 0 1 1.47,0.36 q 0,1.39 -1.51,3.32 a 0.37,0.38 13.7 0 0 0.36,0.6 q 5.5,-1.14 9.49,1.550003 a 0.32,0.32 0 0 1 -0.3,0.56 q -6.19,-2.540003 -12.48,0.38 a 0.39,0.39 0 0 0 0.24,0.74 q 6.55,-1.15 11.84,2.26 a 0.25,0.25 0 0 1 0.1,0.3 l -0.17,0.46 a 0.28,0.28 0 0 1 -0.43,0.12 q -2.85,-2.09 -6.17,-2.12 a 0.32,0.32 0 0 0 -0.22,0.55 q 4.41,4.19 6.7,8.01 0.84,1.41 0.13,2.35 -0.21,0.27 -0.98,-0.02 a 0.44,0.44 0 0 0 -0.59,0.49 q 0.32,1.73 -2.51,4.43 a 0.35,0.35 0 0 0 0.26,0.6 c 3.51,-0.18 4.14,-4.21 6.2,-6.41 q 2.85,-3.06 2.76,-7.11 -0.47,-20.920003 -11.14,-38.820003 -1.67,-2.79 -3.13,-2.57 a 0.25,0.25 0 0 1 -0.19,-0.45 l 1.74,-1.41 a 0.67,0.66 50.4 0 1 0.92,0.09 q 2,2.29 4.56,1.92 4.49,-0.65 4.59,-0.61 a 0.37,0.37 0 0 1 0.09,0.66 q -1.38,0.92 -6.17,1.18 a 0.85,0.85 0 0 0 -0.69,1.28 l 1.31,2.28 a 1.97,1.97 0 0 0 1.48,0.96 q 7.24,0.78 12.39,-1.99 a 0.61,0.62 62.6 0 1 0.84,0.26 q 1.82,3.58 2.91,7.01 6.36,19.99 3.47,38.680003 -0.38,2.42 -1.9,4.56 a 1.07,1.1 3.2 0 1 -0.35,0.32 l -6.74,3.68 a 2.35,2.35 0 0 0 -1.22,2.06 v 2.72 a 1.29,1.3 63.7 0 1 -0.27,0.79 q -2.12,2.77 -5.04,0.95 a 0.96,0.96 0 0 1 -0.42,-0.59 l -0.4,-1.62 a 0.32,0.31 82.8 0 0 -0.3,-0.24 h -0.37 a 0.35,0.34 86.3 0 0 -0.34,0.39 q 0.46,3.53 4.42,4.81 a 2.06,2.08 30.4 0 0 2.15,-0.57 l 3.49,-3.8 a 0.59,0.59 0 0 0 -0.17,-0.93 q -1.18,-0.59 -0.51,-1.38 a 0.34,0.33 19.3 0 1 0.26,-0.12 l 3.39,-0.11 a 0.88,0.89 6.8 0 1 0.88,1.12 q -3.42,12.12 -7.93,22.36 -1.77,4.02 0.02,5.62 a 0.25,0.25 0 0 1 -0.02,0.39 q -0.28,0.2 -0.63,-0.12 -2.42,-2.21 -1.06,-5.65 5.46,-13.86 7.05,-19.46 a 0.27,0.27 0 0 0 -0.47,-0.24 q -0.8,1.02 -2.26,2.56 c -2.69,2.83 -4.51,1.74 -7.9,-0.09 a 1.82,1.81 2.6 0 1 -0.81,-0.88 q -0.96,-2.22 -0.94,-3.82 a 1.14,1.17 75.5 0 1 0.61,-1.01 c 1.4,-0.75 2.05,-1.07 2.77,-2.53 1.27,-2.6 1.62,-3.57 3.37,-5.61 q 2.29,-2.68 2.5,-6.15 a 0.27,0.28 3.2 0 0 -0.25,-0.29 h -0.01 a 0.22,0.21 6.9 0 0 -0.24,0.18 q -0.5,3.35 -2.47,4.58 a 2.63,2.62 87 0 0 -0.97,1.08 c -2.2,4.57 -2.53,6.43 -8.63,6.75 q -15.77,0.85 -30.08,0.44 a 1.46,1.45 82.8 0 0 -1.44,1.86 q 1.46,5.07 4.23,9.59 3.28,5.36 10.01,6.86 5.27,1.17 4.16,6.22 c -0.97,4.45 -2.42,8.47 -0.28,12.54 1.97,3.75 -0.3,8.18 -3.37,10.3 a 0.55,0.55 0 0 1 -0.73,-0.81 q 0.71,-0.84 1.77,-2.42 c 2.21,-3.31 0.78,-5.56 -0.46,-9.49 a 8.33,8.38 43.5 0 1 -0.11,-4.72 q 1.11,-4.17 1.17,-6.44 c 0.07,-2.22 -1.05,-3.3 -3.43,-3.8 q -3.11,-0.65 -5.64,-2.09 a 0.53,0.52 25.5 0 0 -0.75,0.26 c -3.06,7.93 0.91,13.19 4.18,20.06 q 0.75,1.59 0.45,3.48 a 1.31,1.38 71.1 0 1 -0.38,0.73 l -2.37,2.37 a 0.68,0.68 0 0 0 -0.11,0.82 l 0.19,0.32 a 0.42,0.42 0 0 0 0.67,0.08 q 1.25,-1.32 2.31,-1.75 a 0.31,0.31 0 0 1 0.34,0.51 l -1.59,1.58 a 0.88,0.87 53 0 0 -0.14,1.03 q 0.29,0.53 1.14,1.18 a 0.46,0.46 0 0 1 -0.17,0.81 l -6.98,1.7 a 0.1,0.1 0 0 0 0.01,0.19 z m 34.62,-48.23 a 0.34,0.34 0 0 0 0.29,-0.16 q 2.39,-3.69 4.04,-4.67 c 3.25,-1.92 6.13,-2.92 6.95,-5.79 q 0.64,-2.26 0.73,-5.73 0.03,-1.67 -1.08,-21.170003 -0.23,-3.96 -2.86,-9.86 a 1.19,0.83 39.3 0 1 -0.05,-0.14 l -2.16,-7.89 a 0.78,0.78 0 0 0 -0.78,-0.58 l -8.72,0.29 a 0.57,0.58 84.4 0 0 -0.56,0.67 c 0.62,3.74 2.81,7.36 5.53,10.34 a 4.43,4.43 0 0 1 1.1,2.45 c 0.3,2.68 0.38,6.36 1.06,9.48 q 1.74,7.970003 3.06,16.120003 0.58,3.62 -0.57,5.31 -3.6,5.3 -6.97,10.79 a 0.37,0.37 0 0 0 0.33,0.57 z M 83.78,99.966137 c 4.57,-6.62 10.56,4.130003 12.57,7.340003 a 2.22,2.21 72.8 0 0 1.94,1.03 l 19.09,-0.62 a 0.31,0.31 0 0 0 0.24,-0.48 c -4.44,-6.43 -10.77,-9.610003 -18.49,-9.550003 q -2.34,0.02 -6.7,-0.03 a 0.06,0.07 85.3 0 1 -0.07,-0.05 l -0.19,-0.47 a 0.18,0.19 78 0 1 0.17,-0.25 l 10.37,-0.34 a 0.4,0.41 66.8 0 0 0.28,-0.69 q -3.76,-3.82 -9.75,-3.69 -9.75,0.21 -14.91,0.07 a 0.15,0.15 0 0 0 -0.1,0.27 q 3.75,3.09 4.96,7.36 a 0.33,0.33 0 0 0 0.59,0.1 z m -1.93,-0.72 c -0.84,-2.35 -2.82,-5.4 -5.67,-4.49 a 0.07,0.07 0 0 0 -0.03,0.11 l 5.16,4.73 a 0.33,0.33 0 0 0 0.54,-0.35 z m 2.4,5.180003 -1.94,-0.94 a 0.26,0.26 0 0 1 -0.07,-0.42 q 0.23,-0.21 0.24,-0.24 a 0.71,0.71 0 0 0 -0.13,-0.88 C 80.11,99.856137 76,96.976137 72.77,97.536137 a 1.33,1.32 7.4 0 0 -0.97,0.74 q -1.37,2.920003 -3.96,4.740003 a 0.31,0.31 0 0 0 0.19,0.56 l 12.74,-0.41 a 2.45,2.46 65.1 0 1 1.71,0.62 q 1.64,1.49 2.53,1.15 0.55,-0.2 1.05,0.25 4.79,4.46 8.63,8.14 a 1.52,1.47 65.2 0 0 1.08,0.42 l 23.66,-0.77 a 0.32,0.32 0 0 0 0.28,-0.46 l -1.63,-3.58 a 0.25,0.24 76.2 0 0 -0.24,-0.15 l -21.64,0.7 a 1.04,1.02 75.4 0 1 -0.95,-0.57 q -2.2,-4.41 -5.8,-8.33 -3.08,-3.350003 -5.81,0.29 a 0.81,0.82 40.5 0 0 0.08,1.08 q 0.88,0.86 1.03,2.12 a 0.35,0.35 0 0 1 -0.5,0.35 z m 16.66,25.15 q 0.08,-0.5 -0.41,-1.11 c -3.76,-4.65 -9.97,-11.61 -16.5,-11.33 a 0.53,0.53 0 0 1 -0.21,-1.03 q 4.02,-1.56 7.07,0.94 a 0.26,0.26 0 0 0 0.37,-0.36 q -1.29,-1.67 -3.37,-3.52 a 0.32,0.32 0 0 1 -0.01,-0.47 l 0.18,-0.18 a 0.54,0.54 0 0 1 0.74,-0.02 q 2.14,1.88 4.29,4.35 c 3.63,4.18 9.04,5.12 15.45,5.34 q 6.21,0.21 16.63,-0.85 c 5.36,-0.54 9.42,-3.43 8.83,-9.47 a 3.88,3.94 27.7 0 0 -0.41,-1.36 c -3.49,-6.58 -9.51,-9.27 -16.8,-8.91 a 0.17,0.17 0 0 0 -0.07,0.32 q 5.95,2.8 9.9,7.44 a 0.31,0.3 47.1 0 1 -0.01,0.42 l -0.24,0.24 a 0.01,0.01 0 0 1 -0.02,0 l -7.17,-5.99 a 0.42,0.42 0 0 0 -0.62,0.55 l 2.14,3.39 a 0.68,0.68 0 0 1 0.1,0.52 c -0.36,1.65 1.45,3.89 1.95,5.29 a 0.34,0.34 0 0 1 -0.31,0.45 l -27.16,0.88 a 1.85,1.81 66.4 0 1 -1.34,-0.54 l -8.29,-8.28 a 1.12,1.14 63.4 0 0 -1,-0.32 q -2.06,0.34 -3.43,-1.37 a 1.69,1.71 68.8 0 0 -1.47,-0.64 c -6.02,0.44 -12.61,-0.44 -14.24,7.27 -1.35,6.43 0.51,14.11 2.07,20.23 q 0.56,2.2 1.19,15.09 a 1.43,1.43 0 0 0 1.47,1.36 l 1.12,-0.04 a 1.07,1.06 88.4 0 0 1.03,-1.1 l -0.14,-4.32 a 0.16,0.17 0 0 1 0.16,-0.17 l 0.61,-0.02 a 0.59,0.59 0 0 1 0.61,0.57 l 0.21,6.46 a 1.33,1.34 74.2 0 0 2,1.11 q 3.48,-2 6.39,-0.07 a 0.75,0.75 0 0 0 1.16,-0.68 q -0.05,-0.73 -0.5,-1.4 -2.96,-4.45 -11.03,-15.39 a 0.86,0.86 0 0 1 0.65,-1.37 q 0.61,-0.03 1.4,0.59 6.36,4.98 13.31,7.19 a 2.94,2.94 0 0 1 1.37,0.92 l 2.21,2.64 a 1.89,1.87 82.1 0 0 0.68,0.52 q 5.18,2.28 7.46,-2.37 a 0.25164459,0.25164459 0 0 1 0.47,0.18 c -1.93,7.19 -11.87,3.32 -16.16,0.98 a 0.28,0.28 0 0 0 -0.37,0.39 l 5.46,8.63 a 2.23,2.26 81.3 0 0 1.37,0.99 l 0.91,0.22 a 0.4,0.41 80.7 0 0 0.44,-0.61 l -3.52,-5.57 a 0.13,0.14 81.6 0 1 0.15,-0.2 l 5.96,1.44 a 0.42,0.42 0 0 1 0.29,0.25 l 2.66,5.83 a 0.89,0.88 76.3 0 0 0.83,0.51 l 3.34,-0.11 a 0.55,0.55 0 0 1 0.53,0.77 q -0.23,0.53 -0.59,0.75 c -3.46,2.12 -6.85,3.61 -7.61,7.49 a 0.27,0.27 0 0 0 0.46,0.25 q 5.02,-4.95 12.12,-4.72 a 0.71,0.72 79.2 0 1 0.62,0.42 l 0.13,0.27 a 0.51,0.51 0 0 1 -0.42,0.71 c -3.69,0.29 -8.1,1.82 -10.46,4.74 -2.27,2.8 -3.82,3.98 -7.69,4.95 q -2.23,0.56 -3.28,0.68 a 0.81,0.82 74 0 0 -0.64,1.15 l 0.33,0.73 a 1.17,1.18 65.7 0 0 1.56,0.58 l 2.5,-1.14 a 0.4,0.39 16.4 0 1 0.38,0.69 l -1.21,0.77 a 0.68,0.68 0 0 0 0.41,1.26 q 1.06,-0.06 2.42,-1.72 a 0.11,0.11 0 0 1 0.17,-0.01 l 0.37,0.33 a 0.29,0.29 0 0 1 0.01,0.41 l -0.53,0.59 a 0.41,0.41 0 0 0 0.43,0.67 q 1.57,-0.5 2.79,-1.47 a 0.38209946,0.38209946 0 0 1 0.52,0.56 l -1.17,1.27 a 0.38,0.38 0 0 0 0.22,0.63 q 1.05,0.15 2.51,-1.57 a 0.67,0.81 52.1 0 1 1.28,0.04 q 0.09,0.25 -0.69,0.69 a 0.53,0.53 0 0 0 0.35,0.98 q 2.88,-0.49 4.89,-2.61 3.22,-3.38 8.69,-6.62 c 3.77,-2.23 0.04,-6.4 -1.54,-9.16 a 26.99,27.09 22.8 0 1 -2.72,-6.69 q -2.54,-9.78 -3.71,-18.24 -0.24,-1.74 -1.26,-2.76 z m 4.17,8.16 1.07,6.4 a 0.3,0.3 0 0 0 0.59,0.02 l 0.95,-3.89 a 0.37,0.36 34.2 0 0 -0.06,-0.28 l -2.02,-2.49 a 0.3,0.3 0 0 0 -0.53,0.24 z m -13.19,38.05 q -0.04,0 -0.26,0.08 a 0.1,0.09 52.9 0 0 -0.02,0.16 q 0.1,0.09 0.27,0.07 a 0.15016914,0.16018042 46 0 0 0.01,-0.31 z m 4.05,1.1 a 0.25,0.25 0 0 0 0.03,-0.47 l -0.25,-0.1 a 0.27,0.27 0 0 0 -0.31,0.42 q 0.18,0.23 0.53,0.15 z m 10.8,-0.071 a 5.03,2.43 82 0 0 -1.7064,5.3192 5.03,2.43 82 0 0 3.1064,4.6428 5.03,2.43 82 0 0 1.7064,-5.3192 5.03,2.43 82 0 0 -3.1064,-4.6428 z m -9.252,1.2223 a 1.48,1.19 87.6 0 0 -1.127,1.5285 1.48,1.19 87.6 0 0 1.251,1.4289 1.48,1.19 87.6 0 0 1.127,-1.5285 1.48,1.19 87.6 0 0 -1.251,-1.4289 z"
     id="path22" />
  <path
     fill="#ffffff"
     d="m 142,67.406137 c -1.92,0.39 -4.43,0.65 -5.77,0.2 a 0.32,0.32 0 0 1 0.11,-0.63 q 2.79,-0.01 5.46,-0.55 2.67,-0.54 5.24,-1.62 a 0.32,0.32 0 0 1 0.34,0.54 c -1.05,0.94 -3.46,1.67 -5.38,2.06 z"
     id="path23" />
  <path
     fill="#ffffff"
     d="m 127.76,67.366137 a 0.31,0.31 0 0 1 0.59,-0.08 c 2.4,5.41 -0.27,10.85 -6.61,10.69 -1.42,-0.04 -2.79,0.03 -3.79,-0.76 a 0.69,0.69 0 0 1 0.63,-1.2 c 5.74,1.79 10.88,-1.24 9.35,-7.59 q -0.2,-0.85 -0.17,-1.06 z"
     id="path24" />
  <path
     fill="#ffffff"
     d="m 120.32,86.916137 a 0.45,0.45 0 0 1 -0.5,-0.33 l -0.07,-0.29 a 0.36,0.36 0 0 1 0.31,-0.44 c 2.2,-0.27 10.23,-0.33 10.76,2.62 a 0.9,0.85 15.6 0 1 -1.45,0.76 q -3.99,-3.17 -9.05,-2.32 z"
     id="path25" />
  <path
     fill="#ffffff"
     d="m 115.34,90.336137 q -0.36,0.27 -0.8,0.61 a 0.35,0.35 0 0 1 -0.56,-0.21 q -0.2,-0.91 0.56,-1.47 0.76,-0.57 1.58,-0.11 a 0.35,0.35 0 0 1 0.03,0.59 q -0.44,0.32 -0.81,0.59 z"
     id="path26" />
  <path
     fill="#ffffff"
     d="m 18.57,101.97614 q 3.02,3.44 0.17,6.26 a 0.77,0.77 0 0 0 0.45,1.31 l 2.24,0.25 a 0.91,0.9 41.2 0 1 0.12,1.78 l -1.42,0.35 a 0.93,0.94 89 0 0 -0.7,0.72 q -0.3,1.5 0.33,2.68 0.92,1.73 0.74,1.95 -0.52,0.62 -1.49,0.92 a 0.72,0.71 80.5 0 0 -0.5,0.71 q 0.07,2.18 -0.72,4.4 a 0.43,0.43 0 0 1 -0.83,-0.18 q 0.11,-1.34 -0.5,-2.22 a 0.66,0.65 48.3 0 1 0.04,-0.8 q 0.46,-0.53 0.74,-1.59 a 0.66,0.65 10.8 0 0 -0.56,-0.81 l -0.32,-0.03 a 0.43,0.42 3.9 0 1 -0.37,-0.42 q 0,-0.6 0.75,-0.84 0.31,-0.09 0.51,-0.41 0.61,-0.99 0.49,-2.28 a 0.73,0.73 0 0 0 -0.63,-0.66 q -0.39,-0.05 -0.91,-0.43 a 0.42,0.41 51 0 1 0.07,-0.71 q 0.5,-0.23 1.13,-0.28 a 0.62,0.62 0 0 0 0.57,-0.66 q -0.05,-1.05 -1.52,-1.41 a 0.34,0.34 0 0 1 -0.16,-0.56 q 1.27,-1.32 0.83,-3 -0.38,-1.45 0.75,-3.94 a 0.42,0.42 0 0 1 0.7,-0.1 z"
     id="path27" />
  <path
     fill="#ffffff"
     d="m 176.18,119.58614 q -0.22,-0.2 -1.61,-4.11 a 1.31,1.28 54.3 0 1 0.18,-1.19 q 2.57,-3.44 1.99,-8.28 a 0.15,0.13 69.2 0 1 0.04,-0.1 l 0.76,-0.61 a 0.25,0.25 0 0 1 0.4,0.15 c 0.34,1.84 -1.2,5.54 -0.27,8.02 a 1.28,1.29 52.4 0 1 -0.16,1.2 q -1.48,2.04 -0.73,4.53 a 0.37,0.37 0 0 1 -0.6,0.39 z"
     id="path28" />
  <path
     fill="#ffffff"
     d="m 100.91,129.57614 c -0.18,12.11 -13.04,8.97 -19.43,5.17 q -6.63,-3.94 -10.18,-6.66 -2.6,-1.98 -3.41,-5.1 a 0.56,0.56 0 0 1 0.03,-0.37 q 0.17,-0.4 0.44,-0.38 a 0.26,0.24 80 0 1 0.21,0.16 q 1.72,4.36 6.54,6.13 a 0.35,0.35 0 0 0 0.44,-0.47 q -1.2,-2.79 -3.11,-5.3 c -3.76,-4.97 -4.33,-10.55 0.52,-15.2 a 0.53,0.53 0 0 1 0.73,0.01 l 0.02,0.02 a 0.52,0.52 0 0 1 0,0.74 c -3.45,3.41 -2.38,8.92 0.05,12.63 q 4.83,7.39 8.41,11.28 4.38,4.77 11.74,4.65 c 4.52,-0.08 5.37,-3.51 6.48,-6.99 a 0.38,0.38 0 0 1 0.25,-0.25 q 0.2,-0.08 0.27,-0.07 z"
     id="path29" />
  <path
     fill="#ffffff"
     d="m 152.45,122.76614 q 0.09,0.41 -0.21,0.71 a 0.37,0.39 17.7 0 1 -0.2,0.11 q -3.64,0.77 -3.78,0.16 -0.14,-0.61 3.46,-1.54 a 0.39,0.37 46 0 1 0.23,0.01 q 0.4,0.14 0.5,0.55 z"
     id="path30" />
  <path
     fill="#ffffff"
     d="m 133.14,125.18614 a 0.41,0.42 40.1 0 1 0.79,-0.07 c 1.54,3.71 1.29,9.71 0.6,12.85 a 2.21,2.2 23.1 0 0 0.94,2.32 l 6.69,4.42 a 0.53,0.53 0 0 1 -0.51,0.92 q -6.88,-3.1 -9.59,-5.1 a 0.4,0.52 82.4 0 0 -0.14,-0.08 l -4.74,-2 a 2.11,2.12 15 0 1 -1.28,-2.23 q 0.78,-5.84 -0.22,-11.22 a 0.43,0.43 0 0 1 0.24,-0.47 l 0.3,-0.14 a 0.26,0.27 69.1 0 1 0.36,0.16 q 1.72,5.36 1.23,9.82 a 2.78,2.79 13.4 0 0 1.79,2.92 l 1.53,0.58 a 1.44,1.43 12.5 0 0 1.93,-1.23 c 0.31,-3.76 0.69,-5.7 0.39,-8.26 q -0.36,-2.98 -0.31,-3.19 z"
     id="path31" />
  <path
     fill="#ffffff"
     d="m 9.35,129.66614 q 0.22,-0.07 1.3,0.27 0.79,0.25 0.91,0.24 4.53,-0.36 9.62,-0.52 c 0.81,-0.03 1.02,-0.53 1.58,-0.76 a 0.66,0.66 0 0 1 0.82,0.28 q 0.88,1.58 1.59,3.16 c 0.76,1.69 1.66,2.9 0.71,4.77 a 1.73,1.65 88.7 0 1 -0.63,0.69 q -1.78,1.11 -3.61,0.35 a 0.41,0.41 0 0 0 -0.57,0.35 q -0.18,2.58 -3.07,6.58 a 0.2,0.21 48.9 0 1 -0.34,-0.02 l -1.13,-1.95 a 0.28,0.28 0 0 1 0.05,-0.34 q 2.17,-1.94 2.73,-4.68 a 0.74,0.74 0 0 0 -1.25,-0.67 l -2.67,2.67 a 0.42,0.42 0 0 1 -0.66,-0.09 l -1.37,-2.37 a 0.27,0.27 0 0 1 0.31,-0.39 q 1.15,0.35 1.89,-0.38 a 0.82,0.82 0 0 0 0.14,-0.99 l -1.53,-2.64 a 1.09,1.1 74 0 0 -1,-0.55 l -1.89,0.06 a 0.99,0.98 74.9 0 1 -0.9,-0.52 l -1.18,-2.18 a 0.27,0.26 68 0 1 0.15,-0.37 z m 7.66,3.93 q 0.17,0.39 0.18,0.41 a 0.49,0.49 0 0 0 0.71,0.09 q 1.54,-1.26 1.43,-1.52 -0.12,-0.27 -2.09,0.03 a 0.49,0.49 0 0 0 -0.41,0.58 q 0,0.02 0.18,0.41 z m 5.82,-0.76 -2.41,2.08 a 0.28,0.28 0 0 0 -0.02,0.39 l 0.11,0.14 a 2.24,1.82 49.2 0 0 2.84,0.5 l 0.08,-0.06 a 2.24,1.82 49.2 0 0 -0.09,-2.89 l -0.11,-0.13 a 0.28,0.28 0 0 0 -0.4,-0.03 z"
     id="path32" />
  <path
     fill="#ffffff"
     d="m 171.78,137.76614 a 0.26,0.27 70.8 0 0 -0.22,0.45 q 1.56,1.57 4.04,3.64 0.41,0.34 0.32,0.86 a 0.8,0.79 11.6 0 1 -0.97,0.63 q -6.44,-1.5 -11.77,-1.92 a 0.45,0.45 0 0 1 -0.29,-0.75 l 1.35,-1.48 a 0.37,0.37 0 0 1 0.58,0.05 q 0.72,1.1 5.16,0.85 a 0.08,0.08 0 0 0 0.05,-0.14 l -3.73,-3.43 a 0.92,0.93 69.5 0 1 0.73,-1.6 l 5.45,0.61 a 0.18,0.18 0 0 0 0.15,-0.31 l -2.97,-2.98 a 0.37,0.41 73.2 0 0 -0.19,-0.09 l -0.99,-0.11 a 0.41,0.41 0 0 1 -0.36,-0.51 q 0.45,-1.81 1.54,-2.19 a 1.82,1.83 38.9 0 1 0.82,-0.09 q 7.81,1.05 9.79,1.18 0.77,0.06 1.47,-0.44 a 0.45,0.45 0 0 1 0.7,0.42 q -0.24,2.34 -2.17,2.34 -1.73,-0.01 -6.69,-0.4 a 0.28,0.28 0 0 0 -0.23,0.48 l 4.54,4.54 a 0.61,0.61 0 0 1 -0.5,1.03 z"
     id="path33" />
  <path
     fill="#ffffff"
     d="m 26.23,156.72614 -1.55,-1.92 a 0.48,0.48 0 0 1 0.24,-0.76 q 1.67,-0.51 1.82,-0.73 a 2.09,1.97 8.1 0 0 -2.38,-2.98 c -4.04,1.13 -6.31,-3.27 -4.28,-6.33 q 2.62,-3.93 7.25,-3.46 a 2.52,2.52 0 0 1 2.19,1.91 l 0.51,2.08 a 0.95,0.96 59.3 0 1 -0.22,0.85 q -0.6,0.66 -1.27,0.88 a 0.37,0.38 0.5 0 1 -0.47,-0.48 q 0.62,-1.85 -0.62,-2.97 c -1.91,-1.73 -5.24,1.45 -6.09,2.96 a 1.23,1.27 48.3 0 0 -0.08,1.06 q 0.99,2.52 2.98,1.15 0.56,-0.39 1.1,-0.65 a 0.69,0.69 0 0 1 0.83,0.19 l 2.49,3.09 a 0.59,0.59 0 0 0 0.83,0.09 l 2.03,-1.64 a 0.51,0.51 0 0 0 -0.04,-0.82 l -1.44,-0.95 a 0.46,0.45 43.7 0 1 -0.02,-0.74 q 0.38,-0.28 1.7,-0.67 a 0.7,0.69 62.9 0 1 0.74,0.24 l 4.03,4.99 a 0.67,0.67 0 0 1 0.08,0.69 q -0.47,0.98 -1.27,1.3 a 0.48,0.48 0 0 1 -0.66,-0.39 q -0.14,-1.26 -0.84,-1.76 a 0.85,0.86 43.2 0 0 -1.04,0.04 c -3.1,2.56 -5.66,4.28 -5.93,5.58 a 0.35,0.35 0 0 1 -0.62,0.15 z"
     id="path34" />
  <path
     fill="#ffffff"
     d="m 171.35,150.82614 a 0.2,0.2 0 0 1 -0.28,0.05 l -9.78,-6.77 a 0.43,0.54 34.7 0 1 -0.04,-0.69 l 0.59,-0.85 a 0.43,0.54 34.7 0 1 0.66,-0.2 l 9.78,6.77 a 0.2,0.2 0 0 1 0.05,0.28 z"
     id="path35" />
  <path
     fill="#ffffff"
     d="m 164.66,158.52614 -8.8,-8.09 a 0.45,0.45 0 0 1 -0.03,-0.63 l 2.44,-2.65 a 1.58,1.6 28.7 0 1 1.57,-0.47 q 5.03,1.26 7.58,5.15 a 3.44,3.44 0 0 1 -0.35,4.21 l -2.27,2.47 a 0.1,0.11 43 0 1 -0.14,0.01 z m 1.1132,-3.6452 a 0.99,0.99 0 0 0 -0.0732,-1.3982 l -4.9345,-4.443 a 0.99,0.99 0 0 0 -1.3982,0.0733 l -0.1605,0.1783 a 0.99,0.99 0 0 0 0.0732,1.3982 l 4.9345,4.443 a 0.99,0.99 0 0 0 1.3982,-0.0733 z"
     id="path36" />
  <path
     fill="#ffffff"
     d="m 148.82,157.63614 q 0.53,-0.99 1.42,-1.56 a 0.53,0.52 45.5 0 1 0.56,0.01 l 5.36,3.54 a 0.3,0.3 0 0 0 0.44,-0.36 q -1.43,-3.44 -3.49,-5.6 a 0.3,0.3 0 0 1 0.01,-0.42 l 1.44,-1.44 a 0.12,0.12 0 0 1 0.19,0.03 l 6.11,10.59 a 0.77,0.78 89.1 0 1 -1.04,1.07 z"
     id="path37" />
  <path
     fill="#ffffff"
     d="m 35.89,157.37614 q -2.44,1.79 -4.32,4.6 a 0.4,0.4 0 0 1 -0.61,0.06 l -2.11,-2.11 a 0.52,0.53 74.4 0 1 0.5,-0.88 l 0.55,0.14 a 1.16,1.16 0 0 0 1.09,-0.31 l 6.16,-6.16 a 1.09,1.09 0 0 1 1.83,1.03 l -1.58,6.49 a 0.23,0.23 0 0 0 0.35,0.25 l 4.81,-3.03 a 0.94,0.98 79.8 0 0 0.42,-0.58 l 0.22,-0.94 a 0.41,0.4 29.3 0 1 0.68,-0.19 l 1.07,1.07 a 0.8,0.79 29.3 0 1 0.22,0.76 l -3.06,12.6 a 0.38,0.38 0 0 1 -0.63,0.19 l -2.18,-2.01 a 0.35,0.36 49.9 0 1 0.05,-0.56 q 0.96,-0.63 1.29,-1.18 a 0.68,0.68 0 0 0 -0.13,-0.85 l -2.28,-2.1 a 0.81,0.81 0 0 0 -0.97,-0.09 l -1.86,1.18 a 0.51,0.52 80.5 0 1 -0.78,-0.55 l 1.61,-6.61 a 0.21,0.22 78.4 0 0 -0.34,-0.22 z m 4.55,5.24 q 0.38,0.24 0.47,0.26 a 0.55,0.55 0 0 0 0.68,-0.42 q 0.42,-2.08 0.32,-2.15 -0.1,-0.06 -1.81,1.2 a 0.55,0.55 0 0 0 -0.1,0.79 q 0.06,0.07 0.44,0.32 z"
     id="path38" />
  <path
     fill="#ffffff"
     d="m 148.82,157.63614 q 1.16,0.72 1.55,1.47 a 0.47,0.47 0 0 1 -0.38,0.68 q -1.93,0.15 -1.95,1.36 a 0.58,0.55 23.8 0 0 0.17,0.4 l 6.29,6.3 a 0.23,0.22 47.3 0 1 -0.01,0.34 l -1.35,1.09 a 0.4,0.4 0 0 1 -0.57,-0.06 l -5.44,-6.74 a 0.74,0.74 0 0 0 -1.2,0.06 l -0.9,1.36 a 0.57,0.57 0 0 1 -0.97,-0.03 l -0.48,-0.83 a 1.34,1.33 51.5 0 1 0.17,-1.58 q 2.18,-2.36 5.07,-3.82 z"
     id="path39" />
  <path
     fill="#ffffff"
     d="m 48.25,168.18614 a 0.09,0.09 0 0 0 0.14,0.09 l 4.49,-3.62 a 0.69,0.66 70.7 0 0 0.24,-0.52 v -0.97 a 0.34,0.34 0 0 1 0.52,-0.28 l 2.08,1.38 a 0.54,0.54 0 0 1 0.04,0.87 l -9.73,7.84 a 0.57,0.57 0 0 1 -0.91,-0.58 c 1.24,-5.23 2.48,-9.08 2.25,-12.89 a 0.45,0.45 0 0 1 0.64,-0.44 c 1.53,0.71 2.03,1.95 1.54,3.76 q -0.78,2.91 -1.3,5.36 z"
     id="path40" />
  <path
     fill="#ffffff"
     d="m 145.78,171.99614 q 1.9,-0.72 0.75,-2.84 a 1.58,1.63 88 0 0 -0.76,-0.69 q -1.77,-0.76 -4.02,-1.11 a 2.34,1.78 6.6 0 1 -2.02,-1.94 q 0.1,-1.82 1.68,-3.16 a 0.86,0.86 0 0 1 1.28,1.13 l -0.69,1.03 a 0.72,0.72 0 0 0 0.19,0.98 q 1.6,1.13 3.11,1.13 2.09,-0.02 3.09,1.55 2.13,3.37 -1.43,5.96 a 0.51,0.51 0 0 1 -0.73,-0.13 l -0.71,-1.13 a 0.54,0.53 63.6 0 1 0.26,-0.78 z"
     id="path41" />
  <path
     fill="#ffffff"
     d="m 104.13,165.13614 a 0.4,0.4 0 0 1 -0.23,-0.54 l 0.04,-0.08 a 0.38,0.38 0 0 1 0.48,-0.21 q 1.74,0.61 3.18,-0.67 a 0.68,0.67 45.3 0 1 0.92,0.01 l 0.05,0.05 a 0.55,0.55 0 0 1 -0.03,0.84 q -1.94,1.51 -4.41,0.6 z"
     id="path42" />
  <path
     fill="#ffffff"
     d="m 133.53,169.94614 q -1.06,-0.4 -1.31,-1.26 a 0.81,0.82 63.8 0 1 0.31,-0.89 q 2.66,-1.89 5.2,-3.05 a 1.17,1.26 1.4 0 1 1.5,1.7 q -0.21,0.46 -1.24,0.81 a 0.6,0.59 64.6 0 0 -0.31,0.88 l 4.98,7.89 a 0.45,0.44 61.7 0 1 -0.19,0.65 l -3.84,1.75 a 0.95,0.95 0 0 1 -1.2,-0.36 l -0.53,-0.83 a 0.45,0.45 0 0 1 0.3,-0.69 q 0.89,-0.14 1.98,-0.87 a 0.65,0.64 62 0 0 0.23,-0.77 q -0.8,-1.96 -2.62,-1.23 a 0.52,0.53 77 0 1 -0.72,-0.45 q -0.08,-0.99 0.73,-1.72 a 0.75,0.75 0 0 0 0.13,-0.95 l -1.27,-2 a 0.35,0.27 85.7 0 0 -0.1,-0.11 q -1.63,-1.23 -1.41,1.02 a 0.46,0.46 0 0 1 -0.62,0.48 z"
     id="path43" />
  <path
     fill="#ffffff"
     d="m 55.99,172.20614 q -2.6,5.21 -2.6,5.56 a 0.33,0.33 0 0 1 -0.48,0.3 l -2.03,-1.09 a 0.45,0.45 0 0 1 0.05,-0.82 q 0.12,-0.04 0.14,-0.05 a 2.25,2.24 0.2 0 0 0.89,-0.87 q 0.62,-1.09 2.15,-4.16 2.6,-5.21 2.6,-5.56 a 0.33,0.33 0 0 1 0.48,-0.3 l 2.03,1.09 a 0.45,0.45 0 0 1 -0.05,0.82 q -0.12,0.04 -0.14,0.05 a 2.25,2.24 0.2 0 0 -0.89,0.87 q -0.62,1.09 -2.15,4.16 z"
     id="path44" />
  <path
     fill="#ffffff"
     d="m 58.64,180.93614 a 0.18,0.17 24.7 0 1 -0.25,0.09 l -1.78,-1.03 a 0.21,0.21 0 0 1 -0.09,-0.26 l 4.79,-11.55 a 0.54,0.55 23.8 0 1 0.73,-0.29 l 4,1.82 a 1.11,1.11 0 0 1 0.53,0.53 q 1.67,3.51 -1.16,5.4 a 0.58,0.58 0 0 0 -0.16,0.79 q 0.25,0.37 1.35,4.72 a 1.4,1.41 77.5 0 0 1.64,1.03 q 0.63,-0.12 0.96,-1.02 0.95,-2.54 2.26,-6.45 0.4,-1.19 -2.58,-2.01 a 0.53,0.53 0 0 1 -0.32,-0.77 l 0.25,-0.43 a 1.05,1.06 25.4 0 1 1.28,-0.46 l 5.87,2.2 a 1.58,1.58 0 0 1 1,1.22 l 0.06,0.37 a 0.53,0.53 0 0 1 -0.71,0.58 l -1.74,-0.65 a 0.75,0.74 19.9 0 0 -0.97,0.45 q -1.95,5.51 -2.2,6.38 -0.97,3.41 -4.35,2.38 c -2.67,-0.81 -2.62,-3.39 -3.23,-6.27 a 1.39,1.4 8.9 0 0 -0.67,-0.92 l -1.81,-1.05 a 0.61,0.61 0 0 0 -0.87,0.31 z m 6.1682,-8.9171 a 0.92,0.92 0 0 0 -0.523,-1.1914 l -0.3354,-0.1308 a 0.92,0.92 0 0 0 -1.1913,0.523 l -0.5667,1.4534 a 0.92,0.92 0 0 0 0.523,1.1914 l 0.3354,0.1308 a 0.92,0.92 0 0 0 1.1913,-0.523 z"
     id="path45" />
  <path
     fill="#ffffff"
     d="m 126.74,178.25614 v -7.89 a 0.58,0.58 0 0 1 0.54,-0.58 c 1.83,-0.11 3.37,-0.47 4.5,1.13 q 1.88,2.66 -0.25,5.11 a 0.45,0.45 0 0 0 0.14,0.7 q 2.19,1.11 4.07,3.01 a 0.36,0.37 51.3 0 1 -0.07,0.57 l -1.04,0.66 a 0.63,0.62 56.7 0 1 -0.84,-0.18 q -1.46,-2.15 -4.53,-2.91 a 0.54,0.54 0 0 0 -0.66,0.41 q -0.47,2.19 -0.38,3.91 0.03,0.57 -0.28,0.8 a 0.74,0.72 56.4 0 1 -1.07,-0.23 q -4.33,-7.29 -6.55,-9.86 a 0.43,0.43 0 0 1 0.22,-0.7 l 2.09,-0.51 a 0.46,0.45 89.2 0 1 0.55,0.54 l -0.14,0.63 a 0.34,0.37 32.1 0 0 0.05,0.27 l 3.3,5.23 a 0.19,0.19 0 0 0 0.35,-0.11 z m 1.81,-6.64 -0.16,3.33 a 0.22,0.22 0 0 0 0.21,0.23 l 0.14,0.01 a 1.86,1.8 2.8 0 0 1.94,-1.71 l 0.01,-0.18 a 1.86,1.8 2.8 0 0 -1.77,-1.88 l -0.14,-0.01 a 0.22,0.22 0 0 0 -0.23,0.21 z"
     id="path46" />
  <path
     fill="#ffffff"
     d="m 120.57,179.71614 0.64,0.24 a 1.6,1.57 84 0 1 0.81,0.67 c 2.92,4.77 -2.65,5.54 -6.01,6.04 a 0.53,0.54 81.3 0 1 -0.61,-0.44 l -1.59,-9.5 a 1.14,1.16 5.3 0 0 -0.73,-0.89 l -0.25,-0.09 a 0.51,0.52 50.6 0 1 0.1,-0.99 l 4.7,-0.78 a 0.82,0.83 52 0 1 0.5,0.06 q 3.08,1.32 2.03,4.86 a 0.67,0.67 0 0 0 0.41,0.82 z m -4.82,-3.28 0.48,2.18 a 0.45,0.45 0 0 0 0.53,0.35 l 0.17,-0.04 a 1.41,1.82 77.7 0 0 1.48,-1.76 l -0.07,-0.32 a 1.41,1.82 77.7 0 0 -2.08,-0.99 l -0.17,0.04 a 0.45,0.45 0 0 0 -0.34,0.54 z m 1.29,5.49 0.34,1.67 a 0.65,0.65 0 0 0 0.77,0.51 l 0.21,-0.05 a 1.34,2.19 78.5 0 0 1.88,-1.75 l -0.06,-0.31 a 1.34,2.19 78.5 0 0 -2.42,-0.88 l -0.21,0.05 a 0.65,0.65 0 0 0 -0.51,0.76 z"
     id="path47" />
  <path
     fill="#ffffff"
     d="m 78.38,182.05614 3,-6.18 a 1.19,1.19 0 0 1 1.59,-0.55 l 0.36,0.17 a 0.85,0.84 26 0 1 0.39,1.12 l -4.99,10.28 a 0.55,0.55 0 0 1 -1.02,-0.06 l -2.97,-8.6 a 0.26,0.26 0 0 1 0.36,-0.32 l 0.75,0.36 a 1.12,1.16 2.2 0 1 0.58,0.65 l 1.06,3.08 a 0.48,0.48 0 0 0 0.89,0.05 z"
     id="path48" />
</svg>
