<?xml version="1.0" encoding="UTF-8" standalone="no"?>
<svg
   version="1.1"
   viewBox="0 0 671.44696 297.16339"
   id="svg5"
   sodipodi:docname="udla-logo.svg"
   width="671.44696"
   height="297.16339"
   inkscape:version="1.4.2 (f4327f4, 2025-05-13)"
   xmlns:inkscape="http://www.inkscape.org/namespaces/inkscape"
   xmlns:sodipodi="http://sodipodi.sourceforge.net/DTD/sodipodi-0.dtd"
   xmlns="http://www.w3.org/2000/svg"
   xmlns:svg="http://www.w3.org/2000/svg">
  <defs
     id="defs5" />
  <sodipodi:namedview
     id="namedview5"
     pagecolor="#ffffff"
     bordercolor="#000000"
     borderopacity="0.25"
     inkscape:showpageshadow="2"
     inkscape:pageopacity="0.0"
     inkscape:pagecheckerboard="0"
     inkscape:deskcolor="#d1d1d1"
     inkscape:zoom="1.0490741"
     inkscape:cx="336.01059"
     inkscape:cy="148.22595"
     inkscape:window-width="2560"
     inkscape:window-height="1351"
     inkscape:window-x="-9"
     inkscape:window-y="-9"
     inkscape:window-maximized="1"
     inkscape:current-layer="svg5" />
  <path
     fill="#ffffff"
     d="m 535.30486,2.2516032 c 7.82,6.28 -21.87,37.4099998 -26.65,42.4599998 q -17.49,18.49 -40.39,40.61 -36.22,35.009997 -61.54,59.119997 -28.31,26.95 -60.99,59.71 -74.99,75.14 -86.32,86.32 c -3.62,3.57 -8.59,6.48 -13.89,5.43 -5.09,-1.01 -7.46,-4.52 -6.98,-10.08 0.67,-7.64 9.05,-17.5 14.83,-23.14 q 37.97,-37.08 91.17,-88.07 7.04,-6.75 21.32,-21.43 c 15.57,-16 34.82,-34.34 48.05,-47.62 q 36.95,-37.099997 44.59,-44.499997 19.51,-18.92 28.61,-27.39 16.44,-15.3 28.09,-29.4099998 c 2.71,-3.27999997 5.03,-4.38999997 9.35,-4.24999997 3.59,0.12 8.05,0.06 10.75,2.23999997 z"
     id="path1" />
  <path
     fill="#ffffff"
     d="m 138.80486,66.101603 q 0.34,-0.45 1.09,-0.9 26.44,-15.77 56.93,-29.8 32.23,-14.83 60.02,-23.23 26.66,-8.0499998 55.88,-8.9999998 c 25.22,-0.83 50.35,3.24 68.3,22.5999998 33.18,35.78 9.46,76.599997 -18.38,105.429997 q -10.7,11.09 -23.26,23.25 -53.98,52.28 -71.75,69.73 -17.12,16.81 -25.27,25.24 c -17.63,18.22 -35.63,37.67 -60.05,45.36 -13.18,4.15 -33.04,4.16 -40.23,-10.57 -7.19,-14.73 -3.41,-32.81 3.98,-47.13 7.28,-14.11 17.04,-25.46 29.04,-36.84 18.93,-17.95 41.81,-33.81 67.51,-37.77 12.35,-1.9 26.52,-0.32 38.01,5.94 q 2.78,1.51 6.62,3.42 1.78,0.88 3.41,-0.87 12.93,-13.87 23.33,-23.91 6.13,-5.92 22.49,-21.77 12.28,-11.89 22.29,-25.949997 c 8.18,-11.51 15.94,-26.49 14.32,-40.63 -2.34,-20.38 -27.86,-30.62 -45.82,-32.45 q -9.12,-0.93 -16,-0.67 c -30.51,1.14 -61.26,9.37 -89.07,21.92 q -13.86,6.26 -49.32,23.86 a 4.77,4.7 23.6 0 1 -0.94,0.36 q -4.03,1.05 -9.91,0.84 -6.61,-0.24 -15.05,-1.66 -4.11,-0.7 -7.7,-2.65 a 1.46,1.45 32.8 0 1 -0.47,-2.15 z m 132.37,124.099997 c 2.28,-3.78 -3.49,-6.82 -6.6,-7.47 q -5.28,-1.1 -9.34,-0.65 -23.88,2.61 -44.14,16.37 -22.22,15.09 -38.18,37.79 c -5.48,7.8 -9.78,15.39 -11.55,24.18 -1.8,8.93 3.7,14.6 12.66,13.15 9.78,-1.59 18.63,-7.25 25.84,-13.9 22.4,-20.68 44.98,-46.01 68.95,-66.8 q 1.56,-1.35 2.36,-2.67 z"
     id="path2" />
  <path
     fill="#ffffff"
     d="m 499.59486,194.5816 c 0.65,0.14 1.72,-0.34 2.62,-0.29 22.7,1.19 47.29,4.91 69.23,8.83 q 40.63,7.27 80.32,22.66 4.74,1.84 18.24,8.31 2.62,1.25 0.48,4.51 a 2.57,2.57 0 0 1 -2.47,1.14 q -3.62,-0.46 -5.8,-1.12 -12.55,-3.84 -47.08,-11.59 c -33.35,-7.49 -66.13,-11.47 -99.25,-12.61 q -7.19,-0.25 -15.74,-0.04 a 2.4,2.39 17.2 0 0 -1.91,1 q -17.17,23.72 -41.84,40.34 c -16.93,11.41 -35.08,20.01 -54.19,27.35 q -17.11,6.58 -34.97,10.43 -13.67,2.95 -26.71,2.28 c -6.16,-0.32 -13.48,-2.06 -18.39,-6.77 -4.97,-4.77 -5.38,-15.51 -3.83,-21.66 4.49,-17.71 22.36,-30.38 38.66,-39.13 q 20.33,-10.91 48.51,-19.98 24.01,-7.73 50.29,-10.17 10.15,-0.94 21.13,-1.78 a 1.18,1.19 1.2 0 0 1.09,-1.05 c 0.62,-5.67 -3.86,-10.62 -8.75,-12.96 q -9.8,-4.68 -20.03,-4.41 -12.87,0.34 -23.57,2.88 c -6.4,1.51 -15.63,4.52 -23.97,5.2 q -5.47,0.46 -7.06,-3.31 c -3.74,-8.84 4.99,-13.57 11.83,-15.65 q 22.59,-6.89 50.38,-5.5 12.71,0.64 22.61,4.66 18.48,7.51 19.66,27.83 a 0.64,0.66 4 0 0 0.51,0.6 z m -28.15,22.55 a 1.21,1.22 15.3 0 0 -0.89,-1.57 q -2.18,-0.49 -4.8,-0.47 -7,0.04 -17.3,1.9 -34.42,6.22 -65.4,18.14 -15.93,6.13 -29.1,16.35 c -3.66,2.85 -19.88,18.57 -8.45,21.86 6.01,1.74 11.89,1.31 18.45,0.4 q 5.2,-0.72 10.94,-2.37 17.54,-5.02 36.62,-13.08 21.32,-9 38.53,-22.44 6.7,-5.23 13.2,-10.3 c 2.91,-2.28 7.38,-5.91 8.2,-8.42 z"
     id="path3" />
  <path
     fill="#ffffff"
     d="m 50.194862,205.9416 a 1.18,1.18 0 0 0 -1.21,-1.78 q -3.43,0.57 -8.53,3.67 -4.59,2.78 -12.67,8.07 -2.11,1.38 -6.79,2.15 -9.51,1.56 -18.4100004,-2.02 a 1.84,1.83 32.5 0 1 -0.66,-2.95 q 3.54,-3.81 8.4300004,-7.43 25.59,-18.99 54.6,-35.4 c 6.4,-3.62 24.16,-12.27 31.05,-7.2 3.95,2.9 2.36,7.78 0.62,11.64 q -3.55,7.89 -9.52,16.22 -7.87,10.98 -18.63,23.88 -7.71,9.26 -30.74,36.75 -3.14,3.75 -7.71,11.04 -1.47,2.35 -1.8,4.61 a 1.71,1.71 0 0 0 1.6,1.96 c 3.96,0.19 9.09,-2.8 13.05,-5.23 6.8,-4.16 13.93,-9.21 20.3,-14.09 q 15.46,-11.85 54.089998,-42.02 c 6,-4.68 28.5,-20.34 35.12,-11.14 a 1.72,1.75 26 0 1 0.33,0.99 c 0.1,4.86 -4.42,12.39 -7.11,16.51 q -15.03,23.04 -16.93,26.04 -6.27,9.87 -9.66,18.14 c -1.01,2.45 -2.7,7.16 -0.25,9.28 3.26,2.79 7.32,1.03 10.42,1.23 a 0.96,0.96 0 0 1 0.47,1.75 q -8.5,5.71 -18.53,9.33 -5.08,1.83 -9.8,1.52 -2.569998,-0.18 -3.939998,-3.88 -0.99,-2.66 0.16,-6.75 c 2.19,-7.79 8.759998,-17.08 11.189998,-22.04 q 0.93,-1.91 1.09,-3.54 a 0.95,0.97 20.8 0 0 -0.38,-0.86 c -2.99,-2.25 -8.24,1.43 -11.089998,3.52 -8.18,5.97 -17.06,13.37 -26.29,19.64 q -20.05,13.6 -43.57,23.76 c -5.69,2.46 -14.73,5.31 -21.5400004,4.31 -6.74000005,-0.99 -7.70000005,-9.42 -6.53000005,-14.99 2.22000005,-10.49 8.61000005,-20.83 14.86000045,-29.55 9.51,-13.25 21.83,-27.86 32.63,-41.61 q 0.63,-0.81 2.28,-3.53 z"
     id="path4" />
  <path
     fill="#ffffff"
     d="m 561.09486,275.3616 a 1.55,1.55 0 0 1 -0.12,2.68 c -2.41,1.25 -4.36,1.48 -6.89,1.99 q -14.51,2.95 -28.99,1.13 c -4.24,-0.54 -10.57,-3.24 -7.04,-8.56 a 2.65,2.62 0.4 0 1 0.75,-0.73 c 12.84,-7.93 30.19,-4.19 42.29,3.49 z"
     id="path5" />
</svg>
