<?xml version="1.0" encoding="UTF-8" standalone="no"?>
<svg
   version="1.1"
   viewBox="0 0 801.27319 405.5372"
   id="svg2"
   sodipodi:docname="khipu-logo-horizontal.svg"
   width="801.27319"
   height="405.5372"
   inkscape:version="1.4.2 (f4327f4, 2025-05-13)"
   xmlns:inkscape="http://www.inkscape.org/namespaces/inkscape"
   xmlns:sodipodi="http://sodipodi.sourceforge.net/DTD/sodipodi-0.dtd"
   xmlns="http://www.w3.org/2000/svg"
   xmlns:svg="http://www.w3.org/2000/svg">
  <defs
     id="defs2" />
  <sodipodi:namedview
     id="namedview2"
     pagecolor="#ffffff"
     bordercolor="#000000"
     borderopacity="0.25"
     inkscape:showpageshadow="2"
     inkscape:pageopacity="0.0"
     inkscape:pagecheckerboard="0"
     inkscape:deskcolor="#d1d1d1"
     inkscape:zoom="1.4109589"
     inkscape:cx="400.79126"
     inkscape:cy="201.63592"
     inkscape:window-width="2560"
     inkscape:window-height="1351"
     inkscape:window-x="-9"
     inkscape:window-y="-9"
     inkscape:window-maximized="1"
     inkscape:current-layer="svg2" />
  <path
     fill="currentColor"
     d="m 801.27321,64.738445 v 7.99 c -0.87,3.73 -3.7,5.95 -6.16,8.25 a 2.44,2.47 24.3 0 1 -1.72,0.66 q -39.63,-0.77 -95.36,-2.4 -7.97,-0.23 -14.94,-1.11 a 2.56,2.56 0 0 0 -2.4,1.02 q -1.4,1.91 -2.14,3.49 c -2.89,6.17 -5.23,12.64 -9.18,17.930005 q -7.41,9.91 -16.86,17.47 c -7.82,6.26 -19.82,9.9 -29.51,11.3 q -18.48,2.67 -36.11,-8.33 c -12.54,-7.82 -21.43,-15.34 -30.47,-25.270005 q -4.6,-5.05 -7.82,-11.13 a 0.6,0.6 0 0 0 -0.55,-0.33 l -81.17,0.84 a 1.31,1.31 0 0 0 -1.24,0.93 q -1.88,6.08 -2.8,8.66 c -5.28,14.770005 -16.21,23.280005 -30.28,29.650005 q -8.6,3.89 -15.83,5.81 c -15.96,4.24 -34.15,0.73 -47.22,-10.56 q -11.21,-9.67 -18.59,-17.65 -5.97,-6.450005 -9.9,-13.630005 a 1.34,1.34 0 0 0 -1.18,-0.7 c -27.7,0.16 -59.33,0.42 -88.5,-1.84 a 1.56,1.56 0 0 0 -1.59,1.03 q -4.07,11.37 -9.87,21.350005 c -6.09,10.45 -14.72,16 -26.27,19.76 -17.42,5.67 -36.29,8.31 -53.08,-0.58 q -11.28,-5.97 -19.68,-15.08 -6.08,-6.6 -10.61,-10.85 -1.86,-1.740005 -2.96,0.4 c -4.67,9.03 -11.57,14.85 -19.82,20.86 -13.219998,9.63 -30.389998,13.7 -46.449998,11.18 q -5.59,-0.87 -13.54,-5.06 -23.49,-12.36 -39.3700004,-33.510005 c -4.22,-5.62 -7.68000002,-13.43 -7.92000002,-21.46 -0.31,-10.35 -0.66,-20.68 2.91000002,-29.95 3.23,-8.38 7.1800004,-16.38 13.7300004,-22.51 10.15,-9.51 25.28,-13.8599996 39.41,-16.5899996 25.7,-4.97000003 41.570005,9.8499996 57.899998,26.2099996 q 3,3 5.61,4.56 a 1.49,1.48 35.5 0 0 1.89,-0.31 c 8.91,-10.44 17.74,-19.03 29.87,-25.6499996 11.95,-6.53 23.8,-7.59 37.27,-5.51 q 5.82,0.9 9.09,2.41 20.51,9.4899996 36.55,26.9799996 c 6.52,7.1 10.09,13.72 15.27,23.77 a 0.98,1 78 0 0 0.83,0.53 c 10.13,0.44 23.17,2.27 34.72,2.78 q 20.49,0.9 26.3,0.54 9.15,-0.55 17.34,-1.41 a 1.4,1.41 17.6 0 0 0.9,-0.47 q 1.2,-1.4 1.87,-3.56 2.49,-8.1 4.52,-13.37 7.14,-18.56 23.16,-29.3 c 10.13,-6.7899996 21.36,-12.70999963 33.66,-12.95999963 q 7.76,-0.16 17.19,3.49000003 c 19.42,7.5099996 37.45,19.9999996 49.12,37.3199996 q 1.19,1.77 6.06,10.67 c 2.12,3.87 4.6,4.91 9.73,5.57 q 6.88,0.87 13.77,0.92 26.44,0.21 53.21,-0.31 a 1.78,1.77 3.6 0 0 1.72,-1.51 q 2.06,-13.8 7.96,-26.6 c 6.37,-13.84 16.1,-19.7199996 30.61,-24.9699996 q 15.83,-5.73 34.43,-4.32000003 c 20.4,1.55000003 38.73,19.30999963 48.99,35.83999963 q 3.75,6.04 8.21,14.77 a 0.89,0.9 77.4 0 0 0.76,0.48 q 44.9,1.54 102.8,3.66 2.93,0.11 7.5,0.57 c 3.35,0.33 6.93,0.15 9.84,1.51 q 4.84,2.26 6.39,7.63 z m -709.419998,-36.02 q -5.04,-3.9 -13.33,-3.27 -21.27,1.6 -35.97,9.94 c -8.28,4.7 -12.12,12.21 -15.9,20.62 q -4.57,10.15 -6.06,19.62 -0.45,2.86 0.07,5.81 2.46,14 13.7,22.040005 c 8.61,6.16 14.95,10.66 25.41,10.09 18.82,-1.04 39.050001,-13.870005 47.749998,-30.230005 2.81,-5.29 3.33,-10.28 3.01,-16.08 -0.45,-8.18 -1.18,-15.68 -4.76,-22.43 q -4.8,-9.06 -13.919998,-16.11 z m 98.929998,-5.76 q -20.45,3.26 -36.43,16.71 c -5.99,5.03 -12.29,11.81 -13.81,19.18 q -1.82,8.85 -0.2,20.68 c 2.38,17.45 15.88,36.430005 35.94,33.080005 q 16.36,-2.74 29.45,-9.56 c 15.68,-8.170005 22.86,-29.800005 22.82,-46.220005 q -0.02,-8 -5.6,-14.64 -10,-11.91 -23.26,-17.55 c -2.68,-1.14 -6.56,-2.05 -8.91,-1.68 z m 164.38,45.57 q 1.85,5.94 2.55,12.34 c 1.16,10.5 9.89,20.080005 17.95,26.100005 4.93,3.69 10.42,3.87 17.06,3.51 11.33,-0.61 23.35,-6.48 33,-12.390005 q 7.71,-4.72 11.64,-11.64 7.43,-13.08 7.63,-29.55 c 0.09,-7.37 -0.79,-14.54 -6.14,-19.62 q -7.15,-6.79 -18.84,-12.64 -5.49,-2.74 -8.49,-2.82 -14.82,-0.42 -24.9,5.06 -19.9,10.82 -30.14,32.75 -0.87,1.86 -1.51,6.67 a 5.16,5.25 39.7 0 0 0.19,2.23 z m 290.57,-35.13 c -6.92,-8.54 -14.64,-15.7 -26.72,-13.56 q -14.3,2.54 -27.93,8.55 c -12.53,5.53 -18.22,15.73 -22.52,28.93 q -2.6,7.98 -2.85,16 c -0.58,18.58 13.67,27.230005 28.97,34.450005 6.38,3.01 13.97,1.84 20.42,-0.36 15.01,-5.11 28.48,-15.030005 36.64,-28.800005 q 4.48,-7.56 3.82,-15.77 c -0.89,-10.98 -2.71,-20.66 -9.83,-29.44 z"
     id="path1" />
  <path
     fill="currentColor"
     d="m 801.27321,189.17845 v 18.38 l -0.36,0.97 a 0.71,0.7 10.1 0 1 -0.66,0.45 q -116.67,-0.85 -192.43,-0.38 c -17.22,0.11 -34.17,0.27 -51.04,1.78 q -3.03,0.27 -6.36,2.04 a 2.46,2.48 73.7 0 0 -1.29,2.34 c 0.66,9.21 -3.66,18.03 -8.6,25.87 -8.83,14 -25.12,26.79 -41.62,29.85 q -12.47,2.31 -24.92,-2.09 -24.63,-8.7 -43.91,-25.76 a 1.22,1.22 0 0 0 -1.69,0.07 q -14.04,14.73 -33.67,24.11 -7.93,3.79 -13.14,4.59 c -11,1.67 -22.83,0.47 -32.99,-4.9 q -26.67,-14.08 -41.93,-41.07 -1.97,-3.5 -5.84,-4.09 -5.49,-0.83 -10.55,-1.13 -35.49,-2.09 -65.51,-3.19 -29,-1.06 -35.96,-1.42 c -17.22,-0.9 -33.46,-0.95 -49.12,-1.83 a 1.84,1.84 0 0 0 -1.83,1.24 q -4.63,13.61 -4.83,14.23 c -6.96,21.71 -21.93,35.06 -42.769998,43.62 a 3.28,3.51 16.5 0 0 -0.82,0.48 q -2.14,1.67 -3.31,3.5 a 1.09,1.09 0 0 0 0.51,1.59 q 6.89,2.77 13.300001,7.77 10.559997,8.23 19.119997,16.37 0.54,0.52 2.38,1.76 a 1.51,1.5 33.2 0 0 2.13,-0.44 q 7.47,-11.87 19.82,-18.56 11.34,-6.15 17.32,-8.67 9.77,-4.11 23.59,-3.9 9.13,0.15 17.77,4.58 c 14.06,7.2 24.57,15.9 34.76,26.73 a 1.39,1.39 0 0 0 2.18,-0.21 q 9.96,-15.72 26.32,-23.47 c 15.09,-7.15 30.43,-11.04 46.7,-6.41 21.77,6.18 41.61,28.62 51.25,49.15001 a 1.82,1.82 0 0 0 1.62,1.05 c 49.5,1.06 93.82,2.05 141.89,1.82 q 5.59,-0.03 6.52,-4.81 c 3.44,-17.86001 10.66,-34.27001 27.8,-42.25001 13.93,-6.49 28.93,-10.32 43.92,-8.63 27.05,3.06 45.67,26.18 56.85,49.01001 a 2.42,2.4 77 0 0 2.14,1.35 q 23.43,0.3 41.79,1.12 c 10.83,0.48 13.62,8.16 12.43,17.49 -0.97,7.54 -10.72,7.87 -16.63,8.11 q -16.41,0.68 -30.6,2.34 c -4.35,0.51 -4.63,4.05 -5.37,7.23 a 7.34,7.14 65.4 0 1 -0.56,1.57 c -4.51,9.12 -11.32,19.63 -19.38,26 -8.68,6.85 -20.93,14.35 -31.92,14.62 -8.71,0.21 -16.09,0.54 -23.3,-1.18 q -6.71,-1.59 -14.79,-6.52 -9.73,-5.94 -14.22,-9.79 -14.26,-12.22 -25.02,-26.67 a 1.73,1.7 71.6 0 0 -1.35,-0.69 l -145.06,-2.09 a 1.89,1.88 11.2 0 0 -1.76,1.17 c -7.68,19.12 -19.59,34.83 -38.29,44.48 -9.29,4.79 -19.38,5.22 -29.65,4.39 q -4.96,-0.4 -8.37,-1.83 -17.98,-7.53 -24.84,-11.69 -11.38,-6.91 -20.96,-17.28 a 0.53,0.54 42.4 0 0 -0.82,0.04 c -12.92,17.45 -31.3,32.92 -54.47,32.53 q -8.28,-0.14 -19.37,-4.59 -20.64,-8.29 -38.31,-23.21 -1.68,-1.42 -3.69,-2.65 a 1.3,1.28 32.2 0 0 -1.76,0.39 c -2.61,4 -4.92,7.86 -7.84,10.77 -11.73,11.66 -33.099998,24.26 -50.449998,19.94 q -11.05,-2.75 -25.96,-9.54 c -13.45,-6.12 -24.79,-16.56 -33.05,-28.44 -4.1800004,-6.01 -6.7400004,-11.99 -7.3200004,-19.63 q -0.86,-11.58 0.86,-25.22 2.28,-18.03001 13.9600004,-28.15001 5.61,-4.86 17.63,-11.52 9.6,-5.32 19.32,-8.15 a 0.74,0.73 65.5 0 0 0.41,-1.11 q -1.31,-2.01 -3.71,-3.16 c -12.38,-5.9 -25.54,-13.1 -35.49,-24.18 -13.2400004,-14.75 -17.8500004,-32.96 -14.2200004,-52.2 2.47,-13.13 7.47,-25.15 18.5100004,-33.12 q 11.47,-8.29 26.15,-13.63 c 9.49,-3.45 19,-4.69 28.67,-1.98 q 9.79,2.74 16.36,6.94 12.439998,7.95 25.189998,21.53 5.19,5.53 7.41,9.34 4.37,7.5 5.42,9.08 0.98,1.47 3.35,1.71 12.95,1.3 29.1,1.61 47.17,0.9 91.1,2.95 11.84,0.55 40.63,2.28 1.86,0.11 3.46,-0.78 a 1.64,1.62 89.6 0 0 0.67,-0.69 c 0.61,-1.17 1.87,-3.78 2.44,-5.63 6.32,-20.36 17.31,-36.6 36.19,-46.33 q 10.77,-5.55 20.01,-6.31 5.09,-0.43 13.92,1.66 c 18.14,4.28 34.45,14.39 49.52,26.17 a 1.64,1.64 0 0 0 2.16,-0.12 c 5.5,-5.38 12.27,-11.53 18.84,-15.52 15.76,-9.56 33.6,-16.92 52.13,-10.54 22.16,7.62 38.5,25.28 50.46,44.62 a 3.27,3.24 74.2 0 0 2.75,1.55 z M 33.073212,371.78846 q 9.89,7.61 22.64,11.13 c 12.08,3.34 21.81,-0.62 32.04,-7.2 8.560005,-5.51 14.279998,-11.34 19.579998,-20.07 4.74,-7.82 7.23,-13.54 6.06,-22.12 q -0.99,-7.22 -3.38,-14.19 c -3.28,-9.54 -9.59,-15.61001 -18.409998,-21.27001 q -6.92,-4.44 -14.59,-3.44 -19.61,2.56 -36.23,15.14001 c -8.4,6.37 -13.01,13.88 -14.66,23.51 -1.02,6.01 -2.96,11.52 -2.75,16.92 0.28,7.27 4.06,17.25 9.7,21.59 z M 112.89321,205.36845 q -1.64,-5.98 -2.12,-9.73 -0.66,-5.21 -2.41,-8.77 c -5.03,-10.26 -16.119998,-21.04 -27.949998,-22.02 -13.49,-1.13 -27.26,5.42 -38.37,13.04 q -6.33,4.34 -9.28,8.2 c -8.81,11.55 -10.82,26.56 -8.96,41.02 q 1.03,7.95 7.02,13.22 c 6.59,5.79 16.99,11.66 25.67,12.95 q 15.75,2.33 29.22,-7.01 c 12.240005,-8.5 25.779998,-23.69 27.339998,-38.95 a 5.12,5.11 40.4 0 0 -0.16,-1.95 z m 117.53,129.70001 q 0.02,-0.87 -1.62,-4.09 a 8.01,8.13 27.4 0 1 -0.82,-2.65 c -0.31,-2.47 -0.32,-5.67 -1.07,-7.98 -4.18,-12.98 -15.87,-22.77001 -28.54,-26.90001 -3.2,-1.05 -5.47,-1.13 -8.61,-0.35 q -20.97,5.24 -37.73,19.11001 c -2.55,2.11 -5.47,5.46 -6.48,8.19 q -5.19,14.03 -5.6,29.71 c -0.22,8.08 2.05,15.49 8.83,20.5 q 8.27,6.11 19.05,9.94 c 12.25,4.35 22.94,2.6 34.21,-4.67 q 13.72,-8.85 21.95,-23.45 c 3.21,-5.68 6.28,-11.25 6.43,-17.36 z m 65.43,48.02 c 11.87,-0.54 24.89,-9.71 33,-18.12 10.22,-10.58 19.07,-22.43 15.68,-38.12 q -1.83,-8.44 -4.39,-13.15 -4.75,-8.73001 -15.72,-16.91001 c -10.53,-7.85 -26.19,-3.44 -36.87,1.79 -12.07,5.91 -23.24,13.25001 -27.85,25.65001 q -3.68,9.89 -4.17,22.63 c -0.36,9.58 1.96,17.91 10.06,23.42 q 11.05,7.51 24.18,11.6 4.18,1.3 6.08,1.21 z m 26.69,-172.27001 q 0.21,5.38 4,17.09 a 9.66,10.06 18.8 0 0 1.07,2.29 c 5.73,9.08 16.4,19.19 27.27,20.72 q 7.75,1.09 16.52,-1.98 c 15.01,-5.24 34.79,-16.95 38.64,-33.1 q 2.63,-10.99 2.14,-24.34 c -0.27,-7.41 -2.99,-12.69 -8.25,-17.04 q -15.55,-12.92 -35,-11.89 c -8.95,0.47 -15.42,3.43 -22.51,9.17 q -15,12.13 -21.15,27.25 -2.92,7.18 -2.73,11.83 z m 169.39,-51.5 q -20.42,4.26 -38.19,16.56 -5.25,3.64 -7.54,6.83 c -7.4,10.28 -8.9,26.84 -7.93,39.3 0.56,7.31 3.07,12.83 8.96,16.67 q 9.47,6.18 20.64,9.82 11.64,3.8 22.75,-1.07 c 14.19,-6.23 26.8,-16.83 32.86,-31.13 10.84,-25.6 -5.3,-49.68 -30.17,-56.93 a 2.86,2.76 46 0 0 -1.38,-0.05 z m 49.15,202.98001 c 7.77,8.72 20.01,17.51 31.73,17.18 10.49,-0.3 21.3,-5.46 30.01,-11.34 q 11.35,-7.67 18.09,-20.24 c 2.13,-3.98 2.95,-7.75 2.87,-12.06 q -0.17,-8.49 -1.54,-16.74 c -2.11,-12.66001 -15.14,-27.20001 -28.15,-29.49001 q -4.39,-0.78 -13.45,1.88 c -13.42,3.93 -27.59,7.44 -35.6,20.12001 q -5.87,9.3 -9.21,21.07 c -3.02,10.64 -2.11,21.37 5.25,29.62 z"
     id="path2" />
</svg>
